<svg width="576" height="127" viewBox="0 0 576 127" fill="none" xmlns="http://www.w3.org/2000/svg">
<rect x="0.407098" y="0.407098" width="575.186" height="126.186" fill="black" stroke="white" stroke-width="0.814195"/>
<line x1="529.33" y1="23.7141" x2="551.592" y2="45.9759" stroke="white" stroke-width="0.814195"/>
<line y1="-0.407098" x2="31.483" y2="-0.407098" transform="matrix(-0.707107 0.707107 0.707107 0.707107 551.304 24.002)" stroke="white" stroke-width="0.814195"/>
<path d="M61.472 55.256V61.52H70.184V55.256H73.784V71H70.184V64.736H61.472V71H57.872V55.256H61.472ZM84.8801 71.288C83.3761 71.288 82.0721 71.048 80.9681 70.568C79.8641 70.072 79.0161 69.368 78.4241 68.456C77.8321 67.528 77.5361 66.44 77.5361 65.192V64.88C77.5361 63.6 77.8241 62.496 78.4001 61.568C78.9921 60.64 79.8401 59.928 80.9441 59.432C82.0481 58.936 83.3601 58.688 84.8801 58.688C86.3841 58.688 87.6801 58.936 88.7681 59.432C89.8561 59.928 90.6881 60.64 91.2641 61.568C91.8561 62.496 92.1521 63.6 92.1521 64.88V65.192C92.1521 66.44 91.8561 67.528 91.2641 68.456C90.6881 69.368 89.8561 70.072 88.7681 70.568C87.6801 71.048 86.3841 71.288 84.8801 71.288ZM84.8561 68.12C86.0241 68.12 86.9281 67.864 87.5681 67.352C88.2241 66.84 88.5521 66.112 88.5521 65.168V64.904C88.5521 63.928 88.2321 63.176 87.5921 62.648C86.9521 62.12 86.0401 61.856 84.8561 61.856C83.6561 61.856 82.7361 62.12 82.0961 62.648C81.4561 63.16 81.1361 63.912 81.1361 64.904V65.168C81.1361 66.112 81.4561 66.84 82.0961 67.352C82.7521 67.864 83.6721 68.12 84.8561 68.12ZM107.783 58.976V71H104.303V67.232C102.911 67.424 101.559 67.52 100.247 67.52C96.2792 67.52 94.2952 65.848 94.2952 62.504V58.976H97.7752V62.264C97.7752 63 98.0152 63.544 98.4952 63.896C98.9752 64.248 99.7192 64.424 100.727 64.424C101.783 64.424 102.975 64.352 104.303 64.208V58.976H107.783ZM121.265 61.976C122.865 61.976 124.121 62.368 125.033 63.152C125.961 63.936 126.425 65.008 126.425 66.368V66.632C126.425 67.976 125.961 69.04 125.033 69.824C124.105 70.592 122.849 70.976 121.265 70.976H112.241V58.976H115.721V61.976H121.265ZM122.873 66.368C122.873 65.904 122.713 65.552 122.393 65.312C122.089 65.056 121.633 64.928 121.025 64.928H115.721V68.024H121.025C121.617 68.024 122.073 67.904 122.393 67.664C122.713 67.424 122.873 67.08 122.873 66.632V66.368ZM142.58 58.688C144.804 58.688 146.548 59.24 147.812 60.344C149.076 61.432 149.708 62.944 149.708 64.88V65.192C149.708 66.44 149.42 67.528 148.844 68.456C148.268 69.368 147.444 70.072 146.372 70.568C145.3 71.048 144.036 71.288 142.58 71.288C140.676 71.288 139.116 70.872 137.9 70.04C136.7 69.192 135.956 68.024 135.668 66.536H133.58V71H130.1V58.976H133.58V63.44H135.692C135.98 61.936 136.724 60.768 137.924 59.936C139.124 59.104 140.676 58.688 142.58 58.688ZM146.108 64.928C146.108 63.952 145.796 63.2 145.172 62.672C144.564 62.128 143.7 61.856 142.58 61.856C141.444 61.856 140.564 62.12 139.94 62.648C139.332 63.176 139.028 63.936 139.028 64.928V65.144C139.028 66.088 139.332 66.824 139.94 67.352C140.564 67.864 141.444 68.12 142.58 68.12C143.684 68.12 144.548 67.856 145.172 67.328C145.796 66.8 146.108 66.072 146.108 65.144V64.928ZM162.479 62.096V58.976H176.351V62.096H171.191V71H167.687V62.096H162.479ZM192.404 66.008H181.7C181.812 66.76 182.18 67.336 182.804 67.736C183.428 68.136 184.268 68.336 185.324 68.336C186.284 68.336 187.068 68.208 187.676 67.952C188.284 67.696 188.636 67.344 188.732 66.896H192.38C192.204 68.304 191.5 69.392 190.268 70.16C189.052 70.912 187.404 71.288 185.324 71.288C183.852 71.288 182.572 71.048 181.484 70.568C180.396 70.072 179.564 69.368 178.988 68.456C178.412 67.544 178.124 66.472 178.124 65.24V64.784C178.124 63.536 178.412 62.456 178.988 61.544C179.58 60.616 180.412 59.912 181.484 59.432C182.572 58.936 183.852 58.688 185.324 58.688C187.564 58.688 189.3 59.224 190.532 60.296C191.78 61.352 192.404 62.84 192.404 64.76V66.008ZM185.3 61.592C184.372 61.592 183.604 61.76 182.996 62.096C182.388 62.432 181.988 62.904 181.796 63.512H188.732C188.54 62.904 188.148 62.432 187.556 62.096C186.964 61.76 186.212 61.592 185.3 61.592ZM214.434 58.976V71H211.074V62.504L210.474 63.848L206.778 71H203.682L200.01 63.848L199.386 62.48V63.944L199.41 71H196.026V58.976H200.97L205.242 67.424L209.49 58.976H214.434ZM222.38 58.976V63.44H229.148V58.976H232.628V71H229.148V66.488H222.38V71H218.9V58.976H222.38ZM243.59 71.288C242.086 71.288 240.782 71.048 239.678 70.568C238.574 70.072 237.726 69.368 237.134 68.456C236.542 67.528 236.246 66.44 236.246 65.192V64.88C236.246 63.6 236.534 62.496 237.11 61.568C237.702 60.64 238.55 59.928 239.654 59.432C240.758 58.936 242.07 58.688 243.59 58.688C245.094 58.688 246.39 58.936 247.478 59.432C248.566 59.928 249.398 60.64 249.974 61.568C250.566 62.496 250.862 63.6 250.862 64.88V65.192C250.862 66.44 250.566 67.528 249.974 68.456C249.398 69.368 248.566 70.072 247.478 70.568C246.39 71.048 245.094 71.288 243.59 71.288ZM243.566 68.12C244.734 68.12 245.638 67.864 246.278 67.352C246.934 66.84 247.262 66.112 247.262 65.168V64.904C247.262 63.928 246.942 63.176 246.302 62.648C245.662 62.12 244.75 61.856 243.566 61.856C242.366 61.856 241.446 62.12 240.806 62.648C240.166 63.16 239.846 63.912 239.846 64.904V65.168C239.846 66.112 240.166 66.84 240.806 67.352C241.462 67.864 242.382 68.12 243.566 68.12ZM268.381 58.976V66.776L275.509 58.976H278.653V71H275.317V63.2L268.189 71H265.045V58.976H268.381ZM300.092 71.288C298.62 71.288 297.332 71.04 296.228 70.544C295.14 70.048 294.3 69.344 293.708 68.432C293.132 67.52 292.844 66.44 292.844 65.192V64.88C292.844 63.616 293.132 62.52 293.708 61.592C294.3 60.664 295.14 59.952 296.228 59.456C297.332 58.944 298.62 58.688 300.092 58.688C301.452 58.688 302.668 58.92 303.74 59.384C304.828 59.832 305.668 60.464 306.26 61.28C306.868 62.08 307.172 63 307.172 64.04V64.136H303.596V64.04C303.596 63.4 303.268 62.88 302.612 62.48C301.972 62.064 301.132 61.856 300.092 61.856C298.908 61.856 298.004 62.12 297.38 62.648C296.756 63.16 296.444 63.912 296.444 64.904V65.168C296.444 66.128 296.756 66.864 297.38 67.376C298.004 67.872 298.908 68.12 300.092 68.12C301.148 68.12 301.996 67.928 302.636 67.544C303.276 67.144 303.596 66.616 303.596 65.96V65.864H307.172V65.96C307.172 67.016 306.876 67.952 306.284 68.768C305.708 69.568 304.884 70.192 303.812 70.64C302.756 71.072 301.516 71.288 300.092 71.288ZM308.861 62.096V58.976H322.733V62.096H317.573V71H314.069V62.096H308.861ZM333.184 58.688C334.592 58.688 335.824 58.944 336.88 59.456C337.936 59.952 338.744 60.672 339.304 61.616C339.88 62.544 340.168 63.624 340.168 64.856V65.096C340.168 66.328 339.88 67.416 339.304 68.36C338.728 69.288 337.912 70.008 336.856 70.52C335.816 71.032 334.592 71.288 333.184 71.288C331.648 71.288 330.344 70.896 329.272 70.112V75.08H325.792V58.976H329.032L329.128 60.008C330.264 59.128 331.616 58.688 333.184 58.688ZM336.568 64.856C336.568 63.912 336.24 63.176 335.584 62.648C334.928 62.12 334.016 61.856 332.848 61.856C332.08 61.856 331.376 61.976 330.736 62.216C330.112 62.44 329.624 62.76 329.272 63.176V66.776C329.64 67.192 330.136 67.52 330.76 67.76C331.4 68 332.096 68.12 332.848 68.12C334.016 68.12 334.928 67.856 335.584 67.328C336.24 66.8 336.568 66.056 336.568 65.096V64.856ZM359.055 67.952V71H357.015C356.279 71 355.639 70.88 355.095 70.64C354.567 70.384 354.167 70.024 353.895 69.56C352.679 70.712 350.951 71.288 348.711 71.288C347.015 71.288 345.695 70.968 344.751 70.328C343.807 69.688 343.335 68.792 343.335 67.64C343.335 66.664 343.687 65.888 344.391 65.312C345.095 64.72 346.119 64.352 347.463 64.208L353.391 63.56C353.199 62.376 352.127 61.784 350.175 61.784C349.151 61.784 348.351 61.928 347.775 62.216C347.215 62.488 346.935 62.872 346.935 63.368V63.44H343.431V63.368C343.431 62.424 343.703 61.6 344.247 60.896C344.807 60.192 345.599 59.648 346.623 59.264C347.647 58.88 348.839 58.688 350.199 58.688C352.311 58.688 353.951 59.16 355.119 60.104C356.303 61.048 356.895 62.352 356.895 64.016V66.992C356.895 67.632 357.263 67.952 357.999 67.952H359.055ZM348.951 68.504C349.975 68.504 350.879 68.352 351.663 68.048C352.463 67.728 353.047 67.304 353.415 66.776V65.96L348.375 66.536C347.847 66.6 347.455 66.712 347.199 66.872C346.943 67.032 346.815 67.256 346.815 67.544C346.815 68.184 347.527 68.504 348.951 68.504ZM365.41 58.976V67.952H370.93V58.976H374.386V67.952H379.882V58.976H383.362V71H361.93V58.976H365.41ZM391.308 58.976V63.44H398.076V58.976H401.556V71H398.076V66.488H391.308V71H387.828V58.976H391.308ZM412.519 71.288C411.015 71.288 409.711 71.048 408.607 70.568C407.503 70.072 406.655 69.368 406.063 68.456C405.471 67.528 405.175 66.44 405.175 65.192V64.88C405.175 63.6 405.463 62.496 406.039 61.568C406.631 60.64 407.479 59.928 408.583 59.432C409.687 58.936 410.999 58.688 412.519 58.688C414.023 58.688 415.319 58.936 416.407 59.432C417.495 59.928 418.327 60.64 418.903 61.568C419.495 62.496 419.791 63.6 419.791 64.88V65.192C419.791 66.44 419.495 67.528 418.903 68.456C418.327 69.368 417.495 70.072 416.407 70.568C415.319 71.048 414.023 71.288 412.519 71.288ZM412.495 68.12C413.663 68.12 414.567 67.864 415.207 67.352C415.863 66.84 416.191 66.112 416.191 65.168V64.904C416.191 63.928 415.871 63.176 415.231 62.648C414.591 62.12 413.679 61.856 412.495 61.856C411.295 61.856 410.375 62.12 409.735 62.648C409.095 63.16 408.775 63.912 408.775 64.904V65.168C408.775 66.112 409.095 66.84 409.735 67.352C410.391 67.864 411.311 68.12 412.495 68.12ZM424.957 71.288C424.349 71.288 423.845 71.104 423.445 70.736C423.061 70.352 422.869 69.864 422.869 69.272C422.869 68.68 423.061 68.2 423.445 67.832C423.845 67.448 424.349 67.256 424.957 67.256C425.581 67.256 426.085 67.448 426.469 67.832C426.853 68.2 427.045 68.68 427.045 69.272C427.045 69.88 426.853 70.368 426.469 70.736C426.085 71.104 425.581 71.288 424.957 71.288ZM433.933 71.288C433.325 71.288 432.821 71.104 432.421 70.736C432.037 70.352 431.845 69.864 431.845 69.272C431.845 68.68 432.037 68.2 432.421 67.832C432.821 67.448 433.325 67.256 433.933 67.256C434.557 67.256 435.061 67.448 435.445 67.832C435.829 68.2 436.021 68.68 436.021 69.272C436.021 69.88 435.829 70.368 435.445 70.736C435.061 71.104 434.557 71.288 433.933 71.288ZM442.908 71.288C442.3 71.288 441.796 71.104 441.396 70.736C441.012 70.352 440.82 69.864 440.82 69.272C440.82 68.68 441.012 68.2 441.396 67.832C441.796 67.448 442.3 67.256 442.908 67.256C443.532 67.256 444.036 67.448 444.42 67.832C444.804 68.2 444.996 68.68 444.996 69.272C444.996 69.88 444.804 70.368 444.42 70.736C444.036 71.104 443.532 71.288 442.908 71.288Z" fill="white"/>
</svg>
