<svg width="127" height="105" viewBox="0 0 127 105" fill="none" xmlns="http://www.w3.org/2000/svg">
<path d="M127 46.914L126.851 60.3918L127 64.7876V67.4426L126.862 69.2092L122.465 71.4893L122.399 73.8875L122.465 75.957V80.4248L117.929 82.6612V87.129L108.856 91.5967V96.0645L106.588 97.1814L104.321 98.2984L101.774 99.5514L99.7853 100.532L97.8487 101.487L95.25 102.766L90.7147 105L86.1793 102.766L81.6414 100.532L77.106 102.766L72.5707 100.532L68.0353 98.2984L63.5 96.0645V91.5967L58.9647 89.3628V75.957L63.5 73.7231V69.2554L68.0353 67.0215L77.106 62.5537L90.7147 69.2554L90.9727 78.802L90.7147 82.6612V87.129L81.6414 91.5967L77.106 89.3628L86.1793 84.8951V71.4893L77.106 67.0215L68.0353 71.4893V75.957L63.5 78.1909V82.6612L68.0353 84.8951V89.3628L72.5707 91.5967L81.6414 96.0645L86.1793 93.8306L90.7147 96.0645L95.25 93.8306L104.321 89.3628V84.8951L108.856 82.6612V78.1909L113.391 75.957V53.6182L108.856 51.3843V46.914L104.321 44.6801L99.7853 46.914L104.321 49.1479V53.6182L108.856 55.8521L104.321 58.086L99.7853 55.8521V51.3843L95.25 49.1479L90.7147 46.914L86.1793 49.1479L90.7147 51.3843V55.8521L95.25 58.086L90.7147 60.3199L86.1793 58.086L81.6414 60.3199L77.106 58.086L86.1793 53.6182L81.6414 51.3843V46.914L77.106 49.1479L72.5707 46.914L68.0353 49.1479L63.5 46.914V51.3843L58.9647 53.6182L68.0353 58.086L63.5 60.3199L58.9647 58.086L54.4293 60.3199L49.8914 58.086L54.4293 55.8521V51.3843L58.9647 49.1479L54.4293 46.914L49.8914 49.1479L45.356 51.3843L40.8207 53.6182L45.356 55.8521L40.8207 58.086L27.2147 51.3843L31.75 49.1479L36.2853 51.3843L40.8207 49.1479V44.6801L31.75 40.2124L22.6793 44.6801L18.144 42.4463L13.606 44.6801L4.53534 40.2124V35.7446L9.07068 37.9785V33.5107L4.53534 31.2769L0 33.5107V20.1075L9.07068 15.6397L13.606 13.4033L18.144 11.1694L22.6793 8.93551L36.2853 15.6397L40.8207 13.4033L45.356 15.6397V11.1694L68.0353 0H86.1793L104.321 8.93551L108.856 11.1694V15.6397L113.391 17.8736V22.3414L117.929 24.5752V29.043L122.465 31.2769V40.2124L127 42.4463V46.914Z" fill="#00C283"/>
</svg>
