<svg width="1920" height="832" viewBox="0 0 1920 832" fill="none" xmlns="http://www.w3.org/2000/svg">
<path d="M51.8649 778.562V830.442L103.745 804.502L51.8649 778.562Z" stroke="black" stroke-miterlimit="10"/>
<path d="M155.609 778.562V830.442L207.489 804.502L155.609 778.562Z" stroke="black" stroke-miterlimit="10"/>
<path d="M259.354 778.562V830.442L311.233 804.502L259.354 778.562Z" stroke="black" stroke-miterlimit="10"/>
<path d="M363.098 778.562V830.442L414.978 804.502L363.098 778.562Z" stroke="black" stroke-miterlimit="10"/>
<path d="M466.843 778.562V830.442L518.722 804.502L466.843 778.562Z" stroke="black" stroke-miterlimit="10"/>
<path d="M570.587 778.562V830.442L622.452 804.502L570.587 778.562Z" stroke="black" stroke-miterlimit="10"/>
<path d="M674.332 778.562V830.442L726.196 804.502L674.332 778.562Z" stroke="black" stroke-miterlimit="10"/>
<path d="M778.076 778.562V830.442L829.941 804.502L778.076 778.562Z" stroke="black" stroke-miterlimit="10"/>
<path d="M881.82 778.562V830.442L933.685 804.502L881.82 778.562Z" stroke="black" stroke-miterlimit="10"/>
<path d="M985.565 778.562V830.442L1037.43 804.502L985.565 778.562Z" stroke="black" stroke-miterlimit="10"/>
<path d="M1089.31 778.562V830.442L1141.17 804.502L1089.31 778.562Z" stroke="black" stroke-miterlimit="10"/>
<path d="M1193.05 778.562V830.442L1244.92 804.502L1193.05 778.562Z" stroke="black" stroke-miterlimit="10"/>
<path d="M1296.8 778.562V830.442L1348.66 804.502L1296.8 778.562Z" stroke="black" stroke-miterlimit="10"/>
<path d="M1400.53 778.562V830.442L1452.41 804.502L1400.53 778.562Z" stroke="black" stroke-miterlimit="10"/>
<path d="M1504.27 778.562V830.442L1556.15 804.502L1504.27 778.562Z" stroke="black" stroke-miterlimit="10"/>
<path d="M1608.02 778.562V830.442L1659.9 804.502L1608.02 778.562Z" stroke="black" stroke-miterlimit="10"/>
<path d="M1711.76 778.562V830.442L1763.64 804.502L1711.76 778.562Z" stroke="black" stroke-miterlimit="10"/>
<path d="M1815.51 778.562V830.442L1867.37 804.502L1815.51 778.562Z" stroke="black" stroke-miterlimit="10"/>
<path d="M0 337.658V389.538L51.8647 363.598L0 337.658Z" stroke="black" stroke-miterlimit="10"/>
<path d="M51.8649 311.719V363.598L103.745 337.659L51.8649 311.719Z" stroke="black" stroke-miterlimit="10"/>
<path d="M51.8649 259.854V311.718L103.745 285.793L51.8649 259.854Z" stroke="black" stroke-miterlimit="10"/>
<path d="M0 285.795V337.66L51.8647 311.72L0 285.795Z" stroke="black" stroke-miterlimit="10"/>
<path d="M0 233.916V285.796L51.8647 259.856L0 233.916Z" stroke="black" stroke-miterlimit="10"/>
<path d="M51.8649 207.988V259.853L103.745 233.913L51.8649 207.988Z" stroke="black" stroke-miterlimit="10"/>
<path d="M51.8649 156.109V207.989L103.745 182.049L51.8649 156.109Z" stroke="black" stroke-miterlimit="10"/>
<path d="M0 182.051V233.916L51.8647 207.991L0 182.051Z" stroke="black" stroke-miterlimit="10"/>
<path d="M0 130.172V182.052L51.8647 156.112L0 130.172Z" stroke="black" stroke-miterlimit="10"/>
<path d="M51.8649 104.246V156.111L103.745 130.171L51.8649 104.246Z" stroke="black" stroke-miterlimit="10"/>
<path d="M51.8649 52.3652V104.245L103.745 78.3051L51.8649 52.3652Z" stroke="black" stroke-miterlimit="10"/>
<path d="M0 78.3066V130.171L51.8647 104.247L0 78.3066Z" stroke="black" stroke-miterlimit="10"/>
<path d="M0 26.4258V78.3055L51.8647 52.3656L0 26.4258Z" stroke="black" stroke-miterlimit="10"/>
<path d="M51.8649 0.501953V52.3667L103.745 26.4268L51.8649 0.501953Z" stroke="black" stroke-miterlimit="10"/>
<path d="M51.8649 363.6V415.464L103.745 389.54L51.8649 363.6Z" stroke="black" stroke-miterlimit="10"/>
<path d="M103.744 337.658V389.538L155.609 363.598L103.744 337.658Z" stroke="black" stroke-miterlimit="10"/>
<path d="M155.609 311.719V363.598L207.489 337.659L155.609 311.719Z" stroke="black" stroke-miterlimit="10"/>
<path d="M155.609 259.854V311.718L207.489 285.793L155.609 259.854Z" stroke="black" stroke-miterlimit="10"/>
<path d="M103.744 285.795V337.66L155.609 311.72L103.744 285.795Z" stroke="black" stroke-miterlimit="10"/>
<path d="M103.744 233.916V285.796L155.609 259.856L103.744 233.916Z" stroke="black" stroke-miterlimit="10"/>
<path d="M155.609 207.988V259.853L207.489 233.913L155.609 207.988Z" stroke="black" stroke-miterlimit="10"/>
<path d="M155.609 156.109V207.989L207.489 182.049L155.609 156.109Z" stroke="black" stroke-miterlimit="10"/>
<path d="M103.744 182.051V233.916L155.609 207.991L103.744 182.051Z" stroke="black" stroke-miterlimit="10"/>
<path d="M103.744 130.172V182.052L155.609 156.112L103.744 130.172Z" stroke="black" stroke-miterlimit="10"/>
<path d="M155.609 104.246V156.111L207.489 130.171L155.609 104.246Z" stroke="black" stroke-miterlimit="10"/>
<path d="M155.609 52.3652V104.245L207.489 78.3051L155.609 52.3652Z" stroke="black" stroke-miterlimit="10"/>
<path d="M103.744 78.3066V130.171L155.609 104.247L103.744 78.3066Z" stroke="black" stroke-miterlimit="10"/>
<path d="M103.744 26.4258V78.3055L155.609 52.3656L103.744 26.4258Z" stroke="black" stroke-miterlimit="10"/>
<path d="M155.609 0.501953V52.3667L207.489 26.4268L155.609 0.501953Z" stroke="black" stroke-miterlimit="10"/>
<path d="M155.609 363.6V415.464L207.489 389.54L155.609 363.6Z" stroke="black" stroke-miterlimit="10"/>
<path d="M207.489 337.658V389.538L259.354 363.598L207.489 337.658Z" stroke="black" stroke-miterlimit="10"/>
<path d="M259.354 311.719V363.598L311.233 337.659L259.354 311.719Z" stroke="black" stroke-miterlimit="10"/>
<path d="M259.354 259.854V311.718L311.233 285.793L259.354 259.854Z" stroke="black" stroke-miterlimit="10"/>
<path d="M207.489 285.795V337.66L259.354 311.72L207.489 285.795Z" stroke="black" stroke-miterlimit="10"/>
<path d="M207.489 233.916V285.796L259.354 259.856L207.489 233.916Z" stroke="black" stroke-miterlimit="10"/>
<path d="M259.354 207.988V259.853L311.233 233.913L259.354 207.988Z" stroke="black" stroke-miterlimit="10"/>
<path d="M259.354 156.109V207.989L311.233 182.049L259.354 156.109Z" stroke="black" stroke-miterlimit="10"/>
<path d="M207.489 182.051V233.916L259.354 207.991L207.489 182.051Z" stroke="black" stroke-miterlimit="10"/>
<path d="M207.489 130.172V182.052L259.354 156.112L207.489 130.172Z" stroke="black" stroke-miterlimit="10"/>
<path d="M259.354 104.246V156.111L311.233 130.171L259.354 104.246Z" stroke="black" stroke-miterlimit="10"/>
<path d="M259.354 52.3652V104.245L311.233 78.3051L259.354 52.3652Z" stroke="black" stroke-miterlimit="10"/>
<path d="M207.489 78.3066V130.171L259.354 104.247L207.489 78.3066Z" stroke="black" stroke-miterlimit="10"/>
<path d="M207.489 26.4258V78.3055L259.354 52.3656L207.489 26.4258Z" stroke="black" stroke-miterlimit="10"/>
<path d="M259.354 0.501953V52.3667L311.233 26.4268L259.354 0.501953Z" stroke="black" stroke-miterlimit="10"/>
<path d="M363.098 259.854V311.718L414.978 285.793L363.098 259.854Z" stroke="black" stroke-miterlimit="10"/>
<path d="M311.234 285.795V337.66L363.098 311.72L311.234 285.795Z" stroke="black" stroke-miterlimit="10"/>
<path d="M311.234 233.916V285.796L363.098 259.856L311.234 233.916Z" stroke="black" stroke-miterlimit="10"/>
<path d="M363.098 207.988V259.853L414.978 233.913L363.098 207.988Z" stroke="black" stroke-miterlimit="10"/>
<path d="M363.098 156.109V207.989L414.978 182.049L363.098 156.109Z" stroke="black" stroke-miterlimit="10"/>
<path d="M311.234 182.051V233.916L363.098 207.991L311.234 182.051Z" stroke="black" stroke-miterlimit="10"/>
<path d="M311.234 130.172V182.052L363.098 156.112L311.234 130.172Z" stroke="black" stroke-miterlimit="10"/>
<path d="M363.098 104.246V156.111L414.978 130.171L363.098 104.246Z" stroke="black" stroke-miterlimit="10"/>
<path d="M363.098 52.3652V104.245L414.978 78.3051L363.098 52.3652Z" stroke="black" stroke-miterlimit="10"/>
<path d="M311.234 78.3066V130.171L363.098 104.247L311.234 78.3066Z" stroke="black" stroke-miterlimit="10"/>
<path d="M311.234 26.4258V78.3055L363.098 52.3656L311.234 26.4258Z" stroke="black" stroke-miterlimit="10"/>
<path d="M363.098 0.501953V52.3667L414.978 26.4268L363.098 0.501953Z" stroke="black" stroke-miterlimit="10"/>
<path d="M414.978 233.916V285.796L466.843 259.856L414.978 233.916Z" stroke="black" stroke-miterlimit="10"/>
<path d="M466.843 207.988V259.853L518.722 233.913L466.843 207.988Z" stroke="black" stroke-miterlimit="10"/>
<path d="M466.843 156.109V207.989L518.722 182.049L466.843 156.109Z" stroke="black" stroke-miterlimit="10"/>
<path d="M414.978 182.051V233.916L466.843 207.991L414.978 182.051Z" stroke="black" stroke-miterlimit="10"/>
<path d="M414.978 130.172V182.052L466.843 156.112L414.978 130.172Z" stroke="black" stroke-miterlimit="10"/>
<path d="M466.843 104.246V156.111L518.722 130.171L466.843 104.246Z" stroke="black" stroke-miterlimit="10"/>
<path d="M466.843 52.3652V104.245L518.722 78.3051L466.843 52.3652Z" stroke="black" stroke-miterlimit="10"/>
<path d="M414.978 78.3066V130.171L466.843 104.247L414.978 78.3066Z" stroke="black" stroke-miterlimit="10"/>
<path d="M414.978 26.4258V78.3055L466.843 52.3656L414.978 26.4258Z" stroke="black" stroke-miterlimit="10"/>
<path d="M466.843 0.501953V52.3667L518.722 26.4268L466.843 0.501953Z" stroke="black" stroke-miterlimit="10"/>
<path d="M466.843 363.6V415.464L518.722 389.54L466.843 363.6Z" stroke="black" stroke-miterlimit="10"/>
<path d="M518.722 337.658V389.538L570.587 363.598L518.722 337.658Z" stroke="black" stroke-miterlimit="10"/>
<path d="M570.587 311.719V363.598L622.452 337.659L570.587 311.719Z" stroke="black" stroke-miterlimit="10"/>
<path d="M570.587 156.109V207.989L622.452 182.049L570.587 156.109Z" stroke="black" stroke-miterlimit="10"/>
<path d="M518.722 182.051V233.916L570.587 207.991L518.722 182.051Z" stroke="black" stroke-miterlimit="10"/>
<path d="M518.722 130.172V182.052L570.587 156.112L518.722 130.172Z" stroke="black" stroke-miterlimit="10"/>
<path d="M570.587 104.246V156.111L622.452 130.171L570.587 104.246Z" stroke="black" stroke-miterlimit="10"/>
<path d="M570.587 52.3652V104.245L622.452 78.3051L570.587 52.3652Z" stroke="black" stroke-miterlimit="10"/>
<path d="M518.722 78.3066V130.171L570.587 104.247L518.722 78.3066Z" stroke="black" stroke-miterlimit="10"/>
<path d="M518.722 26.4258V78.3055L570.587 52.3656L518.722 26.4258Z" stroke="black" stroke-miterlimit="10"/>
<path d="M570.587 0.501953V52.3667L622.452 26.4268L570.587 0.501953Z" stroke="black" stroke-miterlimit="10"/>
<path d="M570.587 363.6V415.464L622.452 389.54L570.587 363.6Z" stroke="black" stroke-miterlimit="10"/>
<path d="M622.452 337.658V389.538L674.332 363.598L622.452 337.658Z" stroke="black" stroke-miterlimit="10"/>
<path d="M674.332 311.719V363.598L726.196 337.659L674.332 311.719Z" stroke="black" stroke-miterlimit="10"/>
<path d="M674.332 259.854V311.718L726.196 285.793L674.332 259.854Z" stroke="black" stroke-miterlimit="10"/>
<path d="M622.452 285.795V337.66L674.332 311.72L622.452 285.795Z" stroke="black" stroke-miterlimit="10"/>
<path d="M622.452 233.916V285.796L674.332 259.856L622.452 233.916Z" stroke="black" stroke-miterlimit="10"/>
<path d="M674.332 207.988V259.853L726.196 233.913L674.332 207.988Z" stroke="black" stroke-miterlimit="10"/>
<path d="M674.332 156.109V207.989L726.196 182.049L674.332 156.109Z" stroke="black" stroke-miterlimit="10"/>
<path d="M622.452 182.051V233.916L674.332 207.991L622.452 182.051Z" stroke="black" stroke-miterlimit="10"/>
<path d="M622.452 130.172V182.052L674.332 156.112L622.452 130.172Z" stroke="black" stroke-miterlimit="10"/>
<path d="M674.332 104.246V156.111L726.196 130.171L674.332 104.246Z" stroke="black" stroke-miterlimit="10"/>
<path d="M674.332 52.3652V104.245L726.196 78.3051L674.332 52.3652Z" stroke="black" stroke-miterlimit="10"/>
<path d="M622.452 78.3066V130.171L674.332 104.247L622.452 78.3066Z" stroke="black" stroke-miterlimit="10"/>
<path d="M622.452 26.4258V78.3055L674.332 52.3656L622.452 26.4258Z" stroke="black" stroke-miterlimit="10"/>
<path d="M674.332 0.501953V52.3667L726.196 26.4268L674.332 0.501953Z" stroke="black" stroke-miterlimit="10"/>
<path d="M674.332 363.6V415.464L726.196 389.54L674.332 363.6Z" stroke="black" stroke-miterlimit="10"/>
<path d="M726.196 337.658V389.538L778.076 363.598L726.196 337.658Z" stroke="black" stroke-miterlimit="10"/>
<path d="M778.076 311.719V363.598L829.941 337.659L778.076 311.719Z" stroke="black" stroke-miterlimit="10"/>
<path d="M778.076 259.854V311.718L829.941 285.793L778.076 259.854Z" stroke="black" stroke-miterlimit="10"/>
<path d="M726.196 285.795V337.66L778.076 311.72L726.196 285.795Z" stroke="black" stroke-miterlimit="10"/>
<path d="M726.196 233.916V285.796L778.076 259.856L726.196 233.916Z" stroke="black" stroke-miterlimit="10"/>
<path d="M778.076 207.988V259.853L829.941 233.913L778.076 207.988Z" stroke="black" stroke-miterlimit="10"/>
<path d="M778.076 156.109V207.989L829.941 182.049L778.076 156.109Z" stroke="black" stroke-miterlimit="10"/>
<path d="M726.196 182.051V233.916L778.076 207.991L726.196 182.051Z" stroke="black" stroke-miterlimit="10"/>
<path d="M726.196 130.172V182.052L778.076 156.112L726.196 130.172Z" stroke="black" stroke-miterlimit="10"/>
<path d="M778.076 104.246V156.111L829.941 130.171L778.076 104.246Z" stroke="black" stroke-miterlimit="10"/>
<path d="M778.076 52.3652V104.245L829.941 78.3051L778.076 52.3652Z" stroke="black" stroke-miterlimit="10"/>
<path d="M726.196 78.3066V130.171L778.076 104.247L726.196 78.3066Z" stroke="black" stroke-miterlimit="10"/>
<path d="M726.196 26.4258V78.3055L778.076 52.3656L726.196 26.4258Z" stroke="black" stroke-miterlimit="10"/>
<path d="M778.076 0.501953V52.3667L829.941 26.4268L778.076 0.501953Z" stroke="black" stroke-miterlimit="10"/>
<path d="M778.076 363.6V415.464L829.941 389.54L778.076 363.6Z" stroke="black" stroke-miterlimit="10"/>
<path d="M829.941 337.658V389.538L881.82 363.598L829.941 337.658Z" stroke="black" stroke-miterlimit="10"/>
<path d="M881.82 311.719V363.598L933.685 337.659L881.82 311.719Z" stroke="black" stroke-miterlimit="10"/>
<path d="M881.82 259.854V311.718L933.685 285.793L881.82 259.854Z" stroke="black" stroke-miterlimit="10"/>
<path d="M829.941 285.795V337.66L881.82 311.72L829.941 285.795Z" stroke="black" stroke-miterlimit="10"/>
<path d="M829.941 233.916V285.796L881.82 259.856L829.941 233.916Z" stroke="black" stroke-miterlimit="10"/>
<path d="M881.82 207.988V259.853L933.685 233.913L881.82 207.988Z" stroke="black" stroke-miterlimit="10"/>
<path d="M881.82 156.109V207.989L933.685 182.049L881.82 156.109Z" stroke="black" stroke-miterlimit="10"/>
<path d="M829.941 182.051V233.916L881.82 207.991L829.941 182.051Z" stroke="black" stroke-miterlimit="10"/>
<path d="M829.941 130.172V182.052L881.82 156.112L829.941 130.172Z" stroke="black" stroke-miterlimit="10"/>
<path d="M881.82 104.246V156.111L933.685 130.171L881.82 104.246Z" stroke="black" stroke-miterlimit="10"/>
<path d="M881.82 52.3652V104.245L933.685 78.3051L881.82 52.3652Z" stroke="black" stroke-miterlimit="10"/>
<path d="M829.941 78.3066V130.171L881.82 104.247L829.941 78.3066Z" stroke="black" stroke-miterlimit="10"/>
<path d="M829.941 26.4258V78.3055L881.82 52.3656L829.941 26.4258Z" stroke="black" stroke-miterlimit="10"/>
<path d="M881.82 0.501953V52.3667L933.685 26.4268L881.82 0.501953Z" stroke="black" stroke-miterlimit="10"/>
<path d="M881.82 363.6V415.464L933.685 389.54L881.82 363.6Z" stroke="black" stroke-miterlimit="10"/>
<path d="M933.685 337.658V389.538L985.565 363.598L933.685 337.658Z" stroke="black" stroke-miterlimit="10"/>
<path d="M933.685 285.795V337.66L985.565 311.72L933.685 285.795Z" stroke="black" stroke-miterlimit="10"/>
<path d="M933.685 233.916V285.796L985.565 259.856L933.685 233.916Z" stroke="black" stroke-miterlimit="10"/>
<path d="M933.685 182.051V233.916L985.565 207.991L933.685 182.051Z" stroke="black" stroke-miterlimit="10"/>
<path d="M933.685 130.172V182.052L985.565 156.112L933.685 130.172Z" stroke="black" stroke-miterlimit="10"/>
<path d="M933.685 78.3066V130.171L985.565 104.247L933.685 78.3066Z" stroke="black" stroke-miterlimit="10"/>
<path d="M933.685 26.4258V78.3055L985.565 52.3656L933.685 26.4258Z" stroke="black" stroke-miterlimit="10"/>
<path d="M985.565 311.719V363.598L1037.43 337.659L985.565 311.719Z" stroke="black" stroke-miterlimit="10"/>
<path d="M985.565 259.854V311.718L1037.43 285.793L985.565 259.854Z" stroke="black" stroke-miterlimit="10"/>
<path d="M985.565 207.988V259.853L1037.43 233.913L985.565 207.988Z" stroke="black" stroke-miterlimit="10"/>
<path d="M985.565 156.109V207.989L1037.43 182.049L985.565 156.109Z" stroke="black" stroke-miterlimit="10"/>
<path d="M985.565 104.246V156.111L1037.43 130.171L985.565 104.246Z" stroke="black" stroke-miterlimit="10"/>
<path d="M985.565 52.3652V104.245L1037.43 78.3051L985.565 52.3652Z" stroke="black" stroke-miterlimit="10"/>
<path d="M985.565 0.501953V52.3667L1037.43 26.4268L985.565 0.501953Z" stroke="black" stroke-miterlimit="10"/>
<path d="M985.565 363.6V415.464L1037.43 389.54L985.565 363.6Z" stroke="black" stroke-miterlimit="10"/>
<path d="M1037.43 337.658V389.538L1089.31 363.598L1037.43 337.658Z" stroke="black" stroke-miterlimit="10"/>
<path d="M1089.31 311.719V363.598L1141.17 337.659L1089.31 311.719Z" stroke="black" stroke-miterlimit="10"/>
<path d="M1089.31 259.854V311.718L1141.17 285.793L1089.31 259.854Z" stroke="black" stroke-miterlimit="10"/>
<path d="M1037.43 285.795V337.66L1089.31 311.72L1037.43 285.795Z" stroke="black" stroke-miterlimit="10"/>
<path d="M1037.43 233.916V285.796L1089.31 259.856L1037.43 233.916Z" stroke="black" stroke-miterlimit="10"/>
<path d="M1089.31 207.988V259.853L1141.17 233.913L1089.31 207.988Z" stroke="black" stroke-miterlimit="10"/>
<path d="M1089.31 156.109V207.989L1141.17 182.049L1089.31 156.109Z" stroke="black" stroke-miterlimit="10"/>
<path d="M1037.43 182.051V233.916L1089.31 207.991L1037.43 182.051Z" stroke="black" stroke-miterlimit="10"/>
<path d="M1037.43 130.172V182.052L1089.31 156.112L1037.43 130.172Z" stroke="black" stroke-miterlimit="10"/>
<path d="M1089.31 104.246V156.111L1141.17 130.171L1089.31 104.246Z" stroke="black" stroke-miterlimit="10"/>
<path d="M1089.31 52.3652V104.245L1141.17 78.3051L1089.31 52.3652Z" stroke="black" stroke-miterlimit="10"/>
<path d="M1037.43 78.3066V130.171L1089.31 104.247L1037.43 78.3066Z" stroke="black" stroke-miterlimit="10"/>
<path d="M1037.43 26.4258V78.3055L1089.31 52.3656L1037.43 26.4258Z" stroke="black" stroke-miterlimit="10"/>
<path d="M1089.31 0.501953V52.3667L1141.17 26.4268L1089.31 0.501953Z" stroke="black" stroke-miterlimit="10"/>
<path d="M1089.31 363.6V415.464L1141.17 389.54L1089.31 363.6Z" stroke="black" stroke-miterlimit="10"/>
<path d="M1141.17 337.658V389.538L1193.05 363.598L1141.17 337.658Z" stroke="black" stroke-miterlimit="10"/>
<path d="M1193.05 311.719V363.598L1244.92 337.659L1193.05 311.719Z" stroke="black" stroke-miterlimit="10"/>
<path d="M1193.05 259.854V311.718L1244.92 285.793L1193.05 259.854Z" stroke="black" stroke-miterlimit="10"/>
<path d="M1141.17 285.795V337.66L1193.05 311.72L1141.17 285.795Z" stroke="black" stroke-miterlimit="10"/>
<path d="M1141.17 233.916V285.796L1193.05 259.856L1141.17 233.916Z" stroke="black" stroke-miterlimit="10"/>
<path d="M1193.05 207.988V259.853L1244.92 233.913L1193.05 207.988Z" stroke="black" stroke-miterlimit="10"/>
<path d="M1193.05 156.109V207.989L1244.92 182.049L1193.05 156.109Z" stroke="black" stroke-miterlimit="10"/>
<path d="M1141.17 182.051V233.916L1193.05 207.991L1141.17 182.051Z" stroke="black" stroke-miterlimit="10"/>
<path d="M1141.17 130.172V182.052L1193.05 156.112L1141.17 130.172Z" stroke="black" stroke-miterlimit="10"/>
<path d="M1193.05 104.246V156.111L1244.92 130.171L1193.05 104.246Z" stroke="black" stroke-miterlimit="10"/>
<path d="M1193.05 52.3652V104.245L1244.92 78.3051L1193.05 52.3652Z" stroke="black" stroke-miterlimit="10"/>
<path d="M1141.17 78.3066V130.171L1193.05 104.247L1141.17 78.3066Z" stroke="black" stroke-miterlimit="10"/>
<path d="M1141.17 26.4258V78.3055L1193.05 52.3656L1141.17 26.4258Z" stroke="black" stroke-miterlimit="10"/>
<path d="M1193.05 0.501953V52.3667L1244.92 26.4268L1193.05 0.501953Z" stroke="black" stroke-miterlimit="10"/>
<path d="M1193.05 363.6V415.464L1244.92 389.54L1193.05 363.6Z" stroke="black" stroke-miterlimit="10"/>
<path d="M1244.92 337.658V389.538L1296.8 363.598L1244.92 337.658Z" stroke="black" stroke-miterlimit="10"/>
<path d="M1296.8 311.719V363.598L1348.66 337.659L1296.8 311.719Z" stroke="black" stroke-miterlimit="10"/>
<path d="M1296.8 259.854V311.718L1348.66 285.793L1296.8 259.854Z" stroke="black" stroke-miterlimit="10"/>
<path d="M1244.92 285.795V337.66L1296.8 311.72L1244.92 285.795Z" stroke="black" stroke-miterlimit="10"/>
<path d="M1244.92 233.916V285.796L1296.8 259.856L1244.92 233.916Z" stroke="black" stroke-miterlimit="10"/>
<path d="M1296.8 207.988V259.853L1348.66 233.913L1296.8 207.988Z" stroke="black" stroke-miterlimit="10"/>
<path d="M1296.8 156.109V207.989L1348.66 182.049L1296.8 156.109Z" stroke="black" stroke-miterlimit="10"/>
<path d="M1244.92 182.051V233.916L1296.8 207.991L1244.92 182.051Z" stroke="black" stroke-miterlimit="10"/>
<path d="M1244.92 130.172V182.052L1296.8 156.112L1244.92 130.172Z" stroke="black" stroke-miterlimit="10"/>
<path d="M1296.8 104.246V156.111L1348.66 130.171L1296.8 104.246Z" stroke="black" stroke-miterlimit="10"/>
<path d="M1296.8 52.3652V104.245L1348.66 78.3051L1296.8 52.3652Z" stroke="black" stroke-miterlimit="10"/>
<path d="M1244.92 78.3066V130.171L1296.8 104.247L1244.92 78.3066Z" stroke="black" stroke-miterlimit="10"/>
<path d="M1244.92 26.4258V78.3055L1296.8 52.3656L1244.92 26.4258Z" stroke="black" stroke-miterlimit="10"/>
<path d="M1296.8 0.501953V52.3667L1348.66 26.4268L1296.8 0.501953Z" stroke="black" stroke-miterlimit="10"/>
<path d="M1296.8 363.6V415.464L1348.66 389.54L1296.8 363.6Z" stroke="black" stroke-miterlimit="10"/>
<path d="M1348.66 337.658V389.538L1400.53 363.598L1348.66 337.658Z" stroke="black" stroke-miterlimit="10"/>
<path d="M1400.53 311.719V363.598L1452.41 337.659L1400.53 311.719Z" stroke="black" stroke-miterlimit="10"/>
<path d="M1400.53 259.854V311.718L1452.41 285.793L1400.53 259.854Z" stroke="black" stroke-miterlimit="10"/>
<path d="M1348.66 285.795V337.66L1400.53 311.72L1348.66 285.795Z" stroke="black" stroke-miterlimit="10"/>
<path d="M1348.66 233.916V285.796L1400.53 259.856L1348.66 233.916Z" stroke="black" stroke-miterlimit="10"/>
<path d="M1400.53 207.988V259.853L1452.41 233.913L1400.53 207.988Z" stroke="black" stroke-miterlimit="10"/>
<path d="M1400.53 156.109V207.989L1452.41 182.049L1400.53 156.109Z" stroke="black" stroke-miterlimit="10"/>
<path d="M1348.66 182.051V233.916L1400.53 207.991L1348.66 182.051Z" stroke="black" stroke-miterlimit="10"/>
<path d="M1348.66 130.172V182.052L1400.53 156.112L1348.66 130.172Z" stroke="black" stroke-miterlimit="10"/>
<path d="M1400.53 104.246V156.111L1452.41 130.171L1400.53 104.246Z" stroke="black" stroke-miterlimit="10"/>
<path d="M1400.53 52.3652V104.245L1452.41 78.3051L1400.53 52.3652Z" stroke="black" stroke-miterlimit="10"/>
<path d="M1348.66 78.3066V130.171L1400.53 104.247L1348.66 78.3066Z" stroke="black" stroke-miterlimit="10"/>
<path d="M1348.66 26.4258V78.3055L1400.53 52.3656L1348.66 26.4258Z" stroke="black" stroke-miterlimit="10"/>
<path d="M1400.53 0.501953V52.3667L1452.41 26.4268L1400.53 0.501953Z" stroke="black" stroke-miterlimit="10"/>
<path d="M1400.53 363.6V415.464L1452.41 389.54L1400.53 363.6Z" stroke="black" stroke-miterlimit="10"/>
<path d="M1452.41 337.658V389.538L1504.27 363.598L1452.41 337.658Z" stroke="black" stroke-miterlimit="10"/>
<path d="M1504.27 311.719V363.598L1556.15 337.659L1504.27 311.719Z" stroke="black" stroke-miterlimit="10"/>
<path d="M1504.27 259.854V311.718L1556.15 285.793L1504.27 259.854Z" stroke="black" stroke-miterlimit="10"/>
<path d="M1452.41 285.795V337.66L1504.27 311.72L1452.41 285.795Z" stroke="black" stroke-miterlimit="10"/>
<path d="M1452.41 233.916V285.796L1504.27 259.856L1452.41 233.916Z" stroke="black" stroke-miterlimit="10"/>
<path d="M1504.27 207.988V259.853L1556.15 233.913L1504.27 207.988Z" stroke="black" stroke-miterlimit="10"/>
<path d="M1504.27 156.109V207.989L1556.15 182.049L1504.27 156.109Z" stroke="black" stroke-miterlimit="10"/>
<path d="M1452.41 182.051V233.916L1504.27 207.991L1452.41 182.051Z" stroke="black" stroke-miterlimit="10"/>
<path d="M1452.41 130.172V182.052L1504.27 156.112L1452.41 130.172Z" stroke="black" stroke-miterlimit="10"/>
<path d="M1504.27 104.246V156.111L1556.15 130.171L1504.27 104.246Z" stroke="black" stroke-miterlimit="10"/>
<path d="M1504.27 52.3652V104.245L1556.15 78.3051L1504.27 52.3652Z" stroke="black" stroke-miterlimit="10"/>
<path d="M1452.41 78.3066V130.171L1504.27 104.247L1452.41 78.3066Z" stroke="black" stroke-miterlimit="10"/>
<path d="M1452.41 26.4258V78.3055L1504.27 52.3656L1452.41 26.4258Z" stroke="black" stroke-miterlimit="10"/>
<path d="M1504.27 0.501953V52.3667L1556.15 26.4268L1504.27 0.501953Z" stroke="black" stroke-miterlimit="10"/>
<path d="M1504.27 363.6V415.464L1556.15 389.54L1504.27 363.6Z" stroke="black" stroke-miterlimit="10"/>
<path d="M1556.15 337.658V389.538L1608.02 363.598L1556.15 337.658Z" stroke="black" stroke-miterlimit="10"/>
<path d="M1608.02 311.719V363.598L1659.9 337.659L1608.02 311.719Z" stroke="black" stroke-miterlimit="10"/>
<path d="M1608.02 259.854V311.718L1659.9 285.793L1608.02 259.854Z" stroke="black" stroke-miterlimit="10"/>
<path d="M1556.15 285.795V337.66L1608.02 311.72L1556.15 285.795Z" stroke="black" stroke-miterlimit="10"/>
<path d="M1556.15 233.916V285.796L1608.02 259.856L1556.15 233.916Z" stroke="black" stroke-miterlimit="10"/>
<path d="M1608.02 207.988V259.853L1659.9 233.913L1608.02 207.988Z" stroke="black" stroke-miterlimit="10"/>
<path d="M1608.02 156.109V207.989L1659.9 182.049L1608.02 156.109Z" stroke="black" stroke-miterlimit="10"/>
<path d="M1556.15 182.051V233.916L1608.02 207.991L1556.15 182.051Z" stroke="black" stroke-miterlimit="10"/>
<path d="M1556.15 130.172V182.052L1608.02 156.112L1556.15 130.172Z" stroke="black" stroke-miterlimit="10"/>
<path d="M1608.02 104.246V156.111L1659.9 130.171L1608.02 104.246Z" stroke="black" stroke-miterlimit="10"/>
<path d="M1608.02 52.3652V104.245L1659.9 78.3051L1608.02 52.3652Z" stroke="black" stroke-miterlimit="10"/>
<path d="M1556.15 78.3066V130.171L1608.02 104.247L1556.15 78.3066Z" stroke="black" stroke-miterlimit="10"/>
<path d="M1556.15 26.4258V78.3055L1608.02 52.3656L1556.15 26.4258Z" stroke="black" stroke-miterlimit="10"/>
<path d="M1608.02 0.501953V52.3667L1659.9 26.4268L1608.02 0.501953Z" stroke="black" stroke-miterlimit="10"/>
<path d="M1608.02 363.6V415.464L1659.9 389.54L1608.02 363.6Z" stroke="black" stroke-miterlimit="10"/>
<path d="M1659.9 337.658V389.538L1711.76 363.598L1659.9 337.658Z" stroke="black" stroke-miterlimit="10"/>
<path d="M1711.76 311.719V363.598L1763.64 337.659L1711.76 311.719Z" stroke="black" stroke-miterlimit="10"/>
<path d="M1711.76 259.854V311.718L1763.64 285.793L1711.76 259.854Z" stroke="black" stroke-miterlimit="10"/>
<path d="M1659.9 285.795V337.66L1711.76 311.72L1659.9 285.795Z" stroke="black" stroke-miterlimit="10"/>
<path d="M1659.9 233.916V285.796L1711.76 259.856L1659.9 233.916Z" stroke="black" stroke-miterlimit="10"/>
<path d="M1711.76 207.988V259.853L1763.64 233.913L1711.76 207.988Z" stroke="black" stroke-miterlimit="10"/>
<path d="M1711.76 156.109V207.989L1763.64 182.049L1711.76 156.109Z" stroke="black" stroke-miterlimit="10"/>
<path d="M1659.9 182.051V233.916L1711.76 207.991L1659.9 182.051Z" stroke="black" stroke-miterlimit="10"/>
<path d="M1659.9 130.172V182.052L1711.76 156.112L1659.9 130.172Z" stroke="black" stroke-miterlimit="10"/>
<path d="M1711.76 104.246V156.111L1763.64 130.171L1711.76 104.246Z" stroke="black" stroke-miterlimit="10"/>
<path d="M1711.76 52.3652V104.245L1763.64 78.3051L1711.76 52.3652Z" stroke="black" stroke-miterlimit="10"/>
<path d="M1659.9 78.3066V130.171L1711.76 104.247L1659.9 78.3066Z" stroke="black" stroke-miterlimit="10"/>
<path d="M1659.9 26.4258V78.3055L1711.76 52.3656L1659.9 26.4258Z" stroke="black" stroke-miterlimit="10"/>
<path d="M1711.76 0.501953V52.3667L1763.64 26.4268L1711.76 0.501953Z" stroke="black" stroke-miterlimit="10"/>
<path d="M1711.76 363.6V415.464L1763.64 389.54L1711.76 363.6Z" stroke="black" stroke-miterlimit="10"/>
<path d="M1763.64 337.658V389.538L1815.51 363.598L1763.64 337.658Z" stroke="black" stroke-miterlimit="10"/>
<path d="M1815.51 311.719V363.598L1867.37 337.659L1815.51 311.719Z" stroke="black" stroke-miterlimit="10"/>
<path d="M1815.51 259.854V311.718L1867.37 285.793L1815.51 259.854Z" stroke="black" stroke-miterlimit="10"/>
<path d="M1763.64 285.795V337.66L1815.51 311.72L1763.64 285.795Z" stroke="black" stroke-miterlimit="10"/>
<path d="M1763.64 233.916V285.796L1815.51 259.856L1763.64 233.916Z" stroke="black" stroke-miterlimit="10"/>
<path d="M1815.51 207.988V259.853L1867.37 233.913L1815.51 207.988Z" stroke="black" stroke-miterlimit="10"/>
<path d="M1815.51 156.109V207.989L1867.37 182.049L1815.51 156.109Z" stroke="black" stroke-miterlimit="10"/>
<path d="M1763.64 182.051V233.916L1815.51 207.991L1763.64 182.051Z" stroke="black" stroke-miterlimit="10"/>
<path d="M1763.64 130.172V182.052L1815.51 156.112L1763.64 130.172Z" stroke="black" stroke-miterlimit="10"/>
<path d="M1815.51 104.246V156.111L1867.37 130.171L1815.51 104.246Z" stroke="black" stroke-miterlimit="10"/>
<path d="M1815.51 52.3652V104.245L1867.37 78.3051L1815.51 52.3652Z" stroke="black" stroke-miterlimit="10"/>
<path d="M1763.64 78.3066V130.171L1815.51 104.247L1763.64 78.3066Z" stroke="black" stroke-miterlimit="10"/>
<path d="M1763.64 26.4258V78.3055L1815.51 52.3656L1763.64 26.4258Z" stroke="black" stroke-miterlimit="10"/>
<path d="M1815.51 0.501953V52.3667L1867.37 26.4268L1815.51 0.501953Z" stroke="black" stroke-miterlimit="10"/>
<path d="M1815.51 363.6V415.464L1867.37 389.54L1815.51 363.6Z" stroke="black" stroke-miterlimit="10"/>
<path d="M1867.37 337.658V389.538L1919.25 363.598L1867.37 337.658Z" stroke="black" stroke-miterlimit="10"/>
<path d="M1867.37 285.795V337.66L1919.25 311.72L1867.37 285.795Z" stroke="black" stroke-miterlimit="10"/>
<path d="M1867.37 233.916V285.796L1919.25 259.856L1867.37 233.916Z" stroke="black" stroke-miterlimit="10"/>
<path d="M1867.37 182.051V233.916L1919.25 207.991L1867.37 182.051Z" stroke="black" stroke-miterlimit="10"/>
<path d="M1867.37 130.172V182.052L1919.25 156.112L1867.37 130.172Z" stroke="black" stroke-miterlimit="10"/>
<path d="M1867.37 78.3066V130.171L1919.25 104.247L1867.37 78.3066Z" stroke="black" stroke-miterlimit="10"/>
<path d="M1867.37 26.4258V78.3055L1919.25 52.3656L1867.37 26.4258Z" stroke="black" stroke-miterlimit="10"/>
<path fill-rule="evenodd" clip-rule="evenodd" d="M674.555 0.947282L622.675 26.8722L621.952 27.2337V26.4249V0.500433H622.952V25.6161L674.108 0.0527516L674.555 0.947282ZM52.0883 0.947256L0.223555 26.8721L-0.5 27.2338V26.4249V0.500433H0.5V25.616L51.6412 0.0527775L52.0883 0.947256ZM1504.5 0.947256L1452.63 26.8721L1451.91 27.2338V26.4249V0.500433H1452.91V25.616L1504.05 0.0527776L1504.5 0.947256ZM103.968 26.8721L155.833 0.947256L155.386 0.0527775L104.244 25.616V0.500433H103.244V26.4249V27.2338L103.968 26.8721ZM259.577 0.947256L207.713 26.8721L206.989 27.2338V26.4249V0.500433H207.989V25.616L259.13 0.0527775L259.577 0.947256ZM311.457 26.8721L363.322 0.947256L362.875 0.0527775L311.734 25.616V0.500433H310.734V26.4249V27.2338L311.457 26.8721ZM467.066 0.947256L415.201 26.8721L414.478 27.2338V26.4249V0.500433H415.478V25.616L466.619 0.0527775L467.066 0.947256ZM518.946 26.8721L570.811 0.947256L570.363 0.0527775L519.222 25.616V0.500433H518.222V26.4249V27.2338L518.946 26.8721ZM726.42 26.8722L778.3 0.947282L777.853 0.0527517L726.696 25.6161V0.500433H725.696V26.4249V27.2337L726.42 26.8722ZM882.044 0.947282L830.164 26.8722L829.441 27.2337V26.4249V0.500433H830.441V25.6161L881.597 0.0527517L882.044 0.947282ZM933.909 26.8722L985.788 0.947282L985.341 0.0527517L934.185 25.6161V0.500433H933.185V26.4249V27.2337L933.909 26.8722ZM1089.53 0.947282L1037.65 26.8722L1036.93 27.2337V26.4249V0.500433H1037.93V25.6161L1089.09 0.0527517L1089.53 0.947282ZM1141.4 26.8722L1193.28 0.947282L1192.83 0.0527517L1141.67 25.6161V0.500433H1140.67V26.4249V27.2337L1141.4 26.8722ZM1297.02 0.947282L1245.14 26.8722L1244.42 27.2337V26.4249V0.500433H1245.42V25.6161L1296.57 0.0527517L1297.02 0.947282ZM1348.89 26.8721L1400.75 0.947256L1400.3 0.0527776L1349.16 25.616V0.500433H1348.16V26.4249V27.2338L1348.89 26.8721ZM1608.24 0.947257L1556.38 26.8721L1555.65 27.2338V26.4249V0.500433H1556.65V25.616L1607.79 0.0527773L1608.24 0.947257ZM1660.12 26.8721L1711.98 0.947256L1711.54 0.0527776L1660.4 25.616V0.500433H1659.4V26.4249V27.2338L1660.12 26.8721ZM1815.73 0.947257L1763.86 26.8721L1763.14 27.2338V26.4249V0.500433H1764.14V25.616L1815.28 0.0527773L1815.73 0.947257ZM1867.59 26.8722L1919.47 0.947283L1919.03 0.0527526L1867.87 25.6161V0.500434H1866.87V26.4249V27.2337L1867.59 26.8722Z" fill="black"/>
<path d="M0 752.639V804.503L51.8647 778.564L0 752.639Z" stroke="black" stroke-miterlimit="10"/>
<path d="M51.8649 726.699V778.564L103.745 752.639L51.8649 726.699Z" stroke="black" stroke-miterlimit="10"/>
<path d="M51.8649 674.834V726.699L103.745 700.759L51.8649 674.834Z" stroke="black" stroke-miterlimit="10"/>
<path d="M0 700.758V752.638L51.8647 726.698L0 700.758Z" stroke="black" stroke-miterlimit="10"/>
<path d="M0 648.893V700.757L51.8647 674.832L0 648.893Z" stroke="black" stroke-miterlimit="10"/>
<path d="M51.8649 622.951V674.831L103.745 648.891L51.8649 622.951Z" stroke="black" stroke-miterlimit="10"/>
<path d="M51.8649 571.088V622.953L103.745 597.013L51.8649 571.088Z" stroke="black" stroke-miterlimit="10"/>
<path d="M0 597.014V648.893L51.8647 622.954L0 597.014Z" stroke="black" stroke-miterlimit="10"/>
<path d="M0 545.146V597.011L51.8647 571.086L0 545.146Z" stroke="black" stroke-miterlimit="10"/>
<path d="M51.8649 519.209V571.089L103.745 545.149L51.8649 519.209Z" stroke="black" stroke-miterlimit="10"/>
<path d="M51.8649 467.344V519.208L103.745 493.269L51.8649 467.344Z" stroke="black" stroke-miterlimit="10"/>
<path d="M0 493.27V545.149L51.8647 519.209L0 493.27Z" stroke="black" stroke-miterlimit="10"/>
<path d="M0 441.406V493.271L51.8647 467.346L0 441.406Z" stroke="black" stroke-miterlimit="10"/>
<path d="M51.8649 415.465V467.345L103.745 441.405L51.8649 415.465Z" stroke="black" stroke-miterlimit="10"/>
<path d="M0 389.541V441.406L51.8647 415.466L0 389.541Z" stroke="black" stroke-miterlimit="10"/>
<path d="M103.744 752.639V804.503L155.609 778.564L103.744 752.639Z" stroke="black" stroke-miterlimit="10"/>
<path d="M155.609 726.699V778.564L207.489 752.639L155.609 726.699Z" stroke="black" stroke-miterlimit="10"/>
<path d="M155.609 674.834V726.699L207.489 700.759L155.609 674.834Z" stroke="black" stroke-miterlimit="10"/>
<path d="M103.744 700.758V752.638L155.609 726.698L103.744 700.758Z" stroke="black" stroke-miterlimit="10"/>
<path d="M103.744 648.893V700.757L155.609 674.832L103.744 648.893Z" stroke="black" stroke-miterlimit="10"/>
<path d="M155.609 622.951V674.831L207.489 648.891L155.609 622.951Z" stroke="black" stroke-miterlimit="10"/>
<path d="M155.609 571.088V622.953L207.489 597.013L155.609 571.088Z" stroke="black" stroke-miterlimit="10"/>
<path d="M103.744 597.014V648.893L155.609 622.954L103.744 597.014Z" stroke="black" stroke-miterlimit="10"/>
<path d="M103.744 545.146V597.011L155.609 571.086L103.744 545.146Z" stroke="black" stroke-miterlimit="10"/>
<path d="M155.609 519.209V571.089L207.489 545.149L155.609 519.209Z" stroke="black" stroke-miterlimit="10"/>
<path d="M155.609 467.344V519.208L207.489 493.269L155.609 467.344Z" stroke="black" stroke-miterlimit="10"/>
<path d="M103.744 493.27V545.149L155.609 519.209L103.744 493.27Z" stroke="black" stroke-miterlimit="10"/>
<path d="M103.744 441.406V493.271L155.609 467.346L103.744 441.406Z" stroke="black" stroke-miterlimit="10"/>
<path d="M155.609 415.465V467.345L207.489 441.405L155.609 415.465Z" stroke="black" stroke-miterlimit="10"/>
<path d="M103.744 389.541V441.406L155.609 415.466L103.744 389.541Z" stroke="black" stroke-miterlimit="10"/>
<path d="M207.489 752.639V804.503L259.354 778.564L207.489 752.639Z" stroke="black" stroke-miterlimit="10"/>
<path d="M259.354 726.699V778.564L311.233 752.639L259.354 726.699Z" stroke="black" stroke-miterlimit="10"/>
<path d="M259.354 674.834V726.699L311.233 700.759L259.354 674.834Z" stroke="black" stroke-miterlimit="10"/>
<path d="M207.489 700.758V752.638L259.354 726.698L207.489 700.758Z" stroke="black" stroke-miterlimit="10"/>
<path d="M207.489 648.893V700.757L259.354 674.832L207.489 648.893Z" stroke="black" stroke-miterlimit="10"/>
<path d="M259.354 622.951V674.831L311.233 648.891L259.354 622.951Z" stroke="black" stroke-miterlimit="10"/>
<path d="M259.354 571.088V622.953L311.233 597.013L259.354 571.088Z" stroke="black" stroke-miterlimit="10"/>
<path d="M207.489 597.014V648.893L259.354 622.954L207.489 597.014Z" stroke="black" stroke-miterlimit="10"/>
<path d="M207.489 545.146V597.011L259.354 571.086L207.489 545.146Z" stroke="black" stroke-miterlimit="10"/>
<path d="M259.354 519.209V571.089L311.233 545.149L259.354 519.209Z" stroke="black" stroke-miterlimit="10"/>
<path d="M259.354 467.344V519.208L311.233 493.269L259.354 467.344Z" stroke="black" stroke-miterlimit="10"/>
<path d="M259.354 415.676V467.541L311.233 441.601L259.354 415.676Z" stroke="black" stroke-miterlimit="10"/>
<path d="M259.354 361.697V413.562L311.233 387.622L259.354 361.697Z" stroke="black" stroke-miterlimit="10"/>
<path d="M207.489 493.27V545.149L259.354 519.209L207.489 493.27Z" stroke="black" stroke-miterlimit="10"/>
<path d="M207.489 441.406V493.271L259.354 467.346L207.489 441.406Z" stroke="black" stroke-miterlimit="10"/>
<path d="M207.489 389.541V441.406L259.354 415.466L207.489 389.541Z" stroke="black" stroke-miterlimit="10"/>
<path d="M311.234 752.639V804.503L363.098 778.564L311.234 752.639Z" stroke="black" stroke-miterlimit="10"/>
<path d="M363.098 726.699V778.564L414.978 752.639L363.098 726.699Z" stroke="black" stroke-miterlimit="10"/>
<path d="M363.098 674.834V726.699L414.978 700.759L363.098 674.834Z" stroke="black" stroke-miterlimit="10"/>
<path d="M311.234 700.758V752.638L363.098 726.698L311.234 700.758Z" stroke="black" stroke-miterlimit="10"/>
<path d="M311.234 648.893V700.757L363.098 674.832L311.234 648.893Z" stroke="black" stroke-miterlimit="10"/>
<path d="M363.098 622.951V674.831L414.978 648.891L363.098 622.951Z" stroke="black" stroke-miterlimit="10"/>
<path d="M363.098 571.088V622.953L414.978 597.013L363.098 571.088Z" stroke="black" stroke-miterlimit="10"/>
<path d="M311.234 597.014V648.893L363.098 622.954L311.234 597.014Z" stroke="black" stroke-miterlimit="10"/>
<path d="M311.234 545.146V597.011L363.098 571.086L311.234 545.146Z" stroke="black" stroke-miterlimit="10"/>
<path d="M363.098 519.209V571.089L414.978 545.149L363.098 519.209Z" stroke="black" stroke-miterlimit="10"/>
<path d="M363.098 467.344V519.208L414.978 493.269L363.098 467.344Z" stroke="black" stroke-miterlimit="10"/>
<path d="M363.098 414.176V466.041L414.978 440.101L363.098 414.176Z" stroke="black" stroke-miterlimit="10"/>
<path d="M311.234 493.27V545.149L363.098 519.209L311.234 493.27Z" stroke="black" stroke-miterlimit="10"/>
<path d="M311.234 441.166V493.046L363.098 467.106L311.234 441.166Z" stroke="black" stroke-miterlimit="10"/>
<path d="M414.978 752.639V804.503L466.843 778.564L414.978 752.639Z" stroke="black" stroke-miterlimit="10"/>
<path d="M466.843 726.699V778.564L518.722 752.639L466.843 726.699Z" stroke="black" stroke-miterlimit="10"/>
<path d="M466.843 674.834V726.699L518.722 700.759L466.843 674.834Z" stroke="black" stroke-miterlimit="10"/>
<path d="M414.978 700.758V752.638L466.843 726.698L414.978 700.758Z" stroke="black" stroke-miterlimit="10"/>
<path d="M414.978 648.893V700.757L466.843 674.832L414.978 648.893Z" stroke="black" stroke-miterlimit="10"/>
<path d="M466.843 622.951V674.831L518.722 648.891L466.843 622.951Z" stroke="black" stroke-miterlimit="10"/>
<path d="M466.843 571.088V622.953L518.722 597.013L466.843 571.088Z" stroke="black" stroke-miterlimit="10"/>
<path d="M414.978 597.014V648.893L466.843 622.954L414.978 597.014Z" stroke="black" stroke-miterlimit="10"/>
<path d="M414.978 545.146V597.011L466.843 571.086L414.978 545.146Z" stroke="black" stroke-miterlimit="10"/>
<path d="M466.843 519.209V571.089L518.722 545.149L466.843 519.209Z" stroke="black" stroke-miterlimit="10"/>
<path d="M466.843 467.344V519.208L518.722 493.269L466.843 467.344Z" stroke="black" stroke-miterlimit="10"/>
<path d="M414.978 493.27V545.149L466.843 519.209L414.978 493.27Z" stroke="black" stroke-miterlimit="10"/>
<path d="M414.978 441.406V493.271L466.843 467.346L414.978 441.406Z" stroke="black" stroke-miterlimit="10"/>
<path d="M466.843 415.465V467.345L518.722 441.405L466.843 415.465Z" stroke="black" stroke-miterlimit="10"/>
<path d="M414.978 389.541V441.406L466.843 415.466L414.978 389.541Z" stroke="black" stroke-miterlimit="10"/>
<path d="M518.722 752.639V804.503L570.587 778.564L518.722 752.639Z" stroke="black" stroke-miterlimit="10"/>
<path d="M570.587 726.699V778.564L622.452 752.639L570.587 726.699Z" stroke="black" stroke-miterlimit="10"/>
<path d="M570.587 674.834V726.699L622.452 700.759L570.587 674.834Z" stroke="black" stroke-miterlimit="10"/>
<path d="M518.722 700.758V752.638L570.587 726.698L518.722 700.758Z" stroke="black" stroke-miterlimit="10"/>
<path d="M518.722 648.893V700.757L570.587 674.832L518.722 648.893Z" stroke="black" stroke-miterlimit="10"/>
<path d="M570.587 622.951V674.831L622.452 648.891L570.587 622.951Z" stroke="black" stroke-miterlimit="10"/>
<path d="M570.587 571.088V622.953L622.452 597.013L570.587 571.088Z" stroke="black" stroke-miterlimit="10"/>
<path d="M518.722 597.014V648.893L570.587 622.954L518.722 597.014Z" stroke="black" stroke-miterlimit="10"/>
<path d="M518.722 545.146V597.011L570.587 571.086L518.722 545.146Z" stroke="black" stroke-miterlimit="10"/>
<path d="M570.587 519.209V571.089L622.452 545.149L570.587 519.209Z" stroke="black" stroke-miterlimit="10"/>
<path d="M570.587 467.344V519.208L622.452 493.269L570.587 467.344Z" stroke="black" stroke-miterlimit="10"/>
<path d="M518.722 493.27V545.149L570.587 519.209L518.722 493.27Z" stroke="black" stroke-miterlimit="10"/>
<path d="M518.722 441.406V493.271L570.587 467.346L518.722 441.406Z" stroke="black" stroke-miterlimit="10"/>
<path d="M570.587 415.465V467.345L622.452 441.405L570.587 415.465Z" stroke="black" stroke-miterlimit="10"/>
<path d="M518.722 389.541V441.406L570.587 415.466L518.722 389.541Z" stroke="black" stroke-miterlimit="10"/>
<path d="M622.452 752.639V804.503L674.332 778.564L622.452 752.639Z" stroke="black" stroke-miterlimit="10"/>
<path d="M674.332 726.699V778.564L726.196 752.639L674.332 726.699Z" stroke="black" stroke-miterlimit="10"/>
<path d="M674.332 674.834V726.699L726.196 700.759L674.332 674.834Z" stroke="black" stroke-miterlimit="10"/>
<path d="M622.452 700.758V752.638L674.332 726.698L622.452 700.758Z" stroke="black" stroke-miterlimit="10"/>
<path d="M622.452 648.893V700.757L674.332 674.832L622.452 648.893Z" stroke="black" stroke-miterlimit="10"/>
<path d="M674.332 622.951V674.831L726.196 648.891L674.332 622.951Z" stroke="black" stroke-miterlimit="10"/>
<path d="M674.332 571.088V622.953L726.196 597.013L674.332 571.088Z" stroke="black" stroke-miterlimit="10"/>
<path d="M622.452 597.014V648.893L674.332 622.954L622.452 597.014Z" stroke="black" stroke-miterlimit="10"/>
<path d="M622.452 545.146V597.011L674.332 571.086L622.452 545.146Z" stroke="black" stroke-miterlimit="10"/>
<path d="M674.332 519.209V571.089L726.196 545.149L674.332 519.209Z" stroke="black" stroke-miterlimit="10"/>
<path d="M674.332 467.344V519.208L726.196 493.269L674.332 467.344Z" stroke="black" stroke-miterlimit="10"/>
<path d="M622.452 493.27V545.149L674.332 519.209L622.452 493.27Z" stroke="black" stroke-miterlimit="10"/>
<path d="M622.452 441.406V493.271L674.332 467.346L622.452 441.406Z" stroke="black" stroke-miterlimit="10"/>
<path d="M674.332 415.465V467.345L726.196 441.405L674.332 415.465Z" stroke="black" stroke-miterlimit="10"/>
<path d="M622.452 389.541V441.406L674.332 415.466L622.452 389.541Z" stroke="black" stroke-miterlimit="10"/>
<path d="M726.196 752.639V804.503L778.076 778.564L726.196 752.639Z" stroke="black" stroke-miterlimit="10"/>
<path d="M778.076 726.699V778.564L829.941 752.639L778.076 726.699Z" stroke="black" stroke-miterlimit="10"/>
<path d="M778.076 674.834V726.699L829.941 700.759L778.076 674.834Z" stroke="black" stroke-miterlimit="10"/>
<path d="M726.196 700.758V752.638L778.076 726.698L726.196 700.758Z" stroke="black" stroke-miterlimit="10"/>
<path d="M726.196 648.893V700.757L778.076 674.832L726.196 648.893Z" stroke="black" stroke-miterlimit="10"/>
<path d="M778.076 622.951V674.831L829.941 648.891L778.076 622.951Z" stroke="black" stroke-miterlimit="10"/>
<path d="M778.076 571.088V622.953L829.941 597.013L778.076 571.088Z" stroke="black" stroke-miterlimit="10"/>
<path d="M726.196 597.014V648.893L778.076 622.954L726.196 597.014Z" stroke="black" stroke-miterlimit="10"/>
<path d="M726.196 545.146V597.011L778.076 571.086L726.196 545.146Z" stroke="black" stroke-miterlimit="10"/>
<path d="M778.076 519.209V571.089L829.941 545.149L778.076 519.209Z" stroke="black" stroke-miterlimit="10"/>
<path d="M778.076 467.344V519.208L829.941 493.269L778.076 467.344Z" stroke="black" stroke-miterlimit="10"/>
<path d="M726.196 493.27V545.149L778.076 519.209L726.196 493.27Z" stroke="black" stroke-miterlimit="10"/>
<path d="M726.196 441.406V493.271L778.076 467.346L726.196 441.406Z" stroke="black" stroke-miterlimit="10"/>
<path d="M778.076 415.465V467.345L829.941 441.405L778.076 415.465Z" stroke="black" stroke-miterlimit="10"/>
<path d="M726.196 389.541V441.406L778.076 415.466L726.196 389.541Z" stroke="black" stroke-miterlimit="10"/>
<path d="M829.941 752.639V804.503L881.82 778.564L829.941 752.639Z" stroke="black" stroke-miterlimit="10"/>
<path d="M881.82 726.699V778.564L933.685 752.639L881.82 726.699Z" stroke="black" stroke-miterlimit="10"/>
<path d="M881.82 674.834V726.699L933.685 700.759L881.82 674.834Z" stroke="black" stroke-miterlimit="10"/>
<path d="M829.941 700.758V752.638L881.82 726.698L829.941 700.758Z" stroke="black" stroke-miterlimit="10"/>
<path d="M829.941 648.893V700.757L881.82 674.832L829.941 648.893Z" stroke="black" stroke-miterlimit="10"/>
<path d="M881.82 622.951V674.831L933.685 648.891L881.82 622.951Z" stroke="black" stroke-miterlimit="10"/>
<path d="M881.82 571.088V622.953L933.685 597.013L881.82 571.088Z" stroke="black" stroke-miterlimit="10"/>
<path d="M829.941 597.014V648.893L881.82 622.954L829.941 597.014Z" stroke="black" stroke-miterlimit="10"/>
<path d="M829.941 545.146V597.011L881.82 571.086L829.941 545.146Z" stroke="black" stroke-miterlimit="10"/>
<path d="M881.82 519.209V571.089L933.685 545.149L881.82 519.209Z" stroke="black" stroke-miterlimit="10"/>
<path d="M881.82 467.344V519.208L933.685 493.269L881.82 467.344Z" stroke="black" stroke-miterlimit="10"/>
<path d="M829.941 493.27V545.149L881.82 519.209L829.941 493.27Z" stroke="black" stroke-miterlimit="10"/>
<path d="M829.941 441.406V493.271L881.82 467.346L829.941 441.406Z" stroke="black" stroke-miterlimit="10"/>
<path d="M881.82 415.465V467.345L933.685 441.405L881.82 415.465Z" stroke="black" stroke-miterlimit="10"/>
<path d="M829.941 389.541V441.406L881.82 415.466L829.941 389.541Z" stroke="black" stroke-miterlimit="10"/>
<path d="M933.685 752.639V804.503L985.565 778.564L933.685 752.639Z" stroke="black" stroke-miterlimit="10"/>
<path d="M933.685 700.758V752.638L985.565 726.698L933.685 700.758Z" stroke="black" stroke-miterlimit="10"/>
<path d="M933.685 648.893V700.757L985.565 674.832L933.685 648.893Z" stroke="black" stroke-miterlimit="10"/>
<path d="M933.685 597.014V648.893L985.565 622.954L933.685 597.014Z" stroke="black" stroke-miterlimit="10"/>
<path d="M933.685 545.146V597.011L985.565 571.086L933.685 545.146Z" stroke="black" stroke-miterlimit="10"/>
<path d="M933.685 493.27V545.149L985.565 519.209L933.685 493.27Z" stroke="black" stroke-miterlimit="10"/>
<path d="M933.685 441.406V493.271L985.565 467.346L933.685 441.406Z" stroke="black" stroke-miterlimit="10"/>
<path d="M933.685 389.541V441.406L985.565 415.466L933.685 389.541Z" stroke="black" stroke-miterlimit="10"/>
<path d="M985.565 726.699V778.564L1037.43 752.639L985.565 726.699Z" stroke="black" stroke-miterlimit="10"/>
<path d="M985.565 674.834V726.699L1037.43 700.759L985.565 674.834Z" stroke="black" stroke-miterlimit="10"/>
<path d="M985.565 622.951V674.831L1037.43 648.891L985.565 622.951Z" stroke="black" stroke-miterlimit="10"/>
<path d="M985.565 571.088V622.953L1037.43 597.013L985.565 571.088Z" stroke="black" stroke-miterlimit="10"/>
<path d="M985.565 519.209V571.089L1037.43 545.149L985.565 519.209Z" stroke="black" stroke-miterlimit="10"/>
<path d="M985.565 467.344V519.208L1037.43 493.269L985.565 467.344Z" stroke="black" stroke-miterlimit="10"/>
<path d="M985.565 415.465V467.345L1037.43 441.405L985.565 415.465Z" stroke="black" stroke-miterlimit="10"/>
<path d="M1037.43 752.639V804.503L1089.31 778.564L1037.43 752.639Z" stroke="black" stroke-miterlimit="10"/>
<path d="M1089.31 726.699V778.564L1141.17 752.639L1089.31 726.699Z" stroke="black" stroke-miterlimit="10"/>
<path d="M1089.31 674.834V726.699L1141.17 700.759L1089.31 674.834Z" stroke="black" stroke-miterlimit="10"/>
<path d="M1037.43 700.758V752.638L1089.31 726.698L1037.43 700.758Z" stroke="black" stroke-miterlimit="10"/>
<path d="M1037.43 648.893V700.757L1089.31 674.832L1037.43 648.893Z" stroke="black" stroke-miterlimit="10"/>
<path d="M1089.31 622.951V674.831L1141.17 648.891L1089.31 622.951Z" stroke="black" stroke-miterlimit="10"/>
<path d="M1089.31 571.088V622.953L1141.17 597.013L1089.31 571.088Z" stroke="black" stroke-miterlimit="10"/>
<path d="M1037.43 597.014V648.893L1089.31 622.954L1037.43 597.014Z" stroke="black" stroke-miterlimit="10"/>
<path d="M1037.43 545.146V597.011L1089.31 571.086L1037.43 545.146Z" stroke="black" stroke-miterlimit="10"/>
<path d="M1089.31 519.209V571.089L1141.17 545.149L1089.31 519.209Z" stroke="black" stroke-miterlimit="10"/>
<path d="M1089.31 467.344V519.208L1141.17 493.269L1089.31 467.344Z" stroke="black" stroke-miterlimit="10"/>
<path d="M1037.43 493.27V545.149L1089.31 519.209L1037.43 493.27Z" stroke="black" stroke-miterlimit="10"/>
<path d="M1037.43 441.406V493.271L1089.31 467.346L1037.43 441.406Z" stroke="black" stroke-miterlimit="10"/>
<path d="M1089.31 415.465V467.345L1141.17 441.405L1089.31 415.465Z" stroke="black" stroke-miterlimit="10"/>
<path d="M1037.43 389.541V441.406L1089.31 415.466L1037.43 389.541Z" stroke="black" stroke-miterlimit="10"/>
<path d="M1141.17 752.639V804.503L1193.05 778.564L1141.17 752.639Z" stroke="black" stroke-miterlimit="10"/>
<path d="M1193.05 726.699V778.564L1244.92 752.639L1193.05 726.699Z" stroke="black" stroke-miterlimit="10"/>
<path d="M1193.05 674.834V726.699L1244.92 700.759L1193.05 674.834Z" stroke="black" stroke-miterlimit="10"/>
<path d="M1141.17 700.758V752.638L1193.05 726.698L1141.17 700.758Z" stroke="black" stroke-miterlimit="10"/>
<path d="M1141.17 648.893V700.757L1193.05 674.832L1141.17 648.893Z" stroke="black" stroke-miterlimit="10"/>
<path d="M1193.05 622.951V674.831L1244.92 648.891L1193.05 622.951Z" stroke="black" stroke-miterlimit="10"/>
<path d="M1193.05 571.088V622.953L1244.92 597.013L1193.05 571.088Z" stroke="black" stroke-miterlimit="10"/>
<path d="M1141.17 597.014V648.893L1193.05 622.954L1141.17 597.014Z" stroke="black" stroke-miterlimit="10"/>
<path d="M1141.17 545.146V597.011L1193.05 571.086L1141.17 545.146Z" stroke="black" stroke-miterlimit="10"/>
<path d="M1193.05 519.209V571.089L1244.92 545.149L1193.05 519.209Z" stroke="black" stroke-miterlimit="10"/>
<path d="M1193.05 467.344V519.208L1244.92 493.269L1193.05 467.344Z" stroke="black" stroke-miterlimit="10"/>
<path d="M1141.17 493.27V545.149L1193.05 519.209L1141.17 493.27Z" stroke="black" stroke-miterlimit="10"/>
<path d="M1141.17 441.406V493.271L1193.05 467.346L1141.17 441.406Z" stroke="black" stroke-miterlimit="10"/>
<path d="M1193.05 415.465V467.345L1244.92 441.405L1193.05 415.465Z" stroke="black" stroke-miterlimit="10"/>
<path d="M1141.17 389.541V441.406L1193.05 415.466L1141.17 389.541Z" stroke="black" stroke-miterlimit="10"/>
<path d="M1244.92 752.639V804.503L1296.8 778.564L1244.92 752.639Z" stroke="black" stroke-miterlimit="10"/>
<path d="M1296.8 726.699V778.564L1348.66 752.639L1296.8 726.699Z" stroke="black" stroke-miterlimit="10"/>
<path d="M1296.8 674.834V726.699L1348.66 700.759L1296.8 674.834Z" stroke="black" stroke-miterlimit="10"/>
<path d="M1244.92 700.758V752.638L1296.8 726.698L1244.92 700.758Z" stroke="black" stroke-miterlimit="10"/>
<path d="M1244.92 648.893V700.757L1296.8 674.832L1244.92 648.893Z" stroke="black" stroke-miterlimit="10"/>
<path d="M1296.8 622.951V674.831L1348.66 648.891L1296.8 622.951Z" stroke="black" stroke-miterlimit="10"/>
<path d="M1296.8 571.088V622.953L1348.66 597.013L1296.8 571.088Z" stroke="black" stroke-miterlimit="10"/>
<path d="M1244.92 597.014V648.893L1296.8 622.954L1244.92 597.014Z" stroke="black" stroke-miterlimit="10"/>
<path d="M1244.92 545.146V597.011L1296.8 571.086L1244.92 545.146Z" stroke="black" stroke-miterlimit="10"/>
<path d="M1296.8 519.209V571.089L1348.66 545.149L1296.8 519.209Z" stroke="black" stroke-miterlimit="10"/>
<path d="M1296.8 467.344V519.208L1348.66 493.269L1296.8 467.344Z" stroke="black" stroke-miterlimit="10"/>
<path d="M1244.92 493.27V545.149L1296.8 519.209L1244.92 493.27Z" stroke="black" stroke-miterlimit="10"/>
<path d="M1244.92 441.406V493.271L1296.8 467.346L1244.92 441.406Z" stroke="black" stroke-miterlimit="10"/>
<path d="M1296.8 415.465V467.345L1348.66 441.405L1296.8 415.465Z" stroke="black" stroke-miterlimit="10"/>
<path d="M1244.92 389.541V441.406L1296.8 415.466L1244.92 389.541Z" stroke="black" stroke-miterlimit="10"/>
<path d="M1348.66 752.639V804.503L1400.53 778.564L1348.66 752.639Z" stroke="black" stroke-miterlimit="10"/>
<path d="M1400.53 726.699V778.564L1452.41 752.639L1400.53 726.699Z" stroke="black" stroke-miterlimit="10"/>
<path d="M1400.53 674.834V726.699L1452.41 700.759L1400.53 674.834Z" stroke="black" stroke-miterlimit="10"/>
<path d="M1348.66 700.758V752.638L1400.53 726.698L1348.66 700.758Z" stroke="black" stroke-miterlimit="10"/>
<path d="M1348.66 648.893V700.757L1400.53 674.832L1348.66 648.893Z" stroke="black" stroke-miterlimit="10"/>
<path d="M1400.53 622.951V674.831L1452.41 648.891L1400.53 622.951Z" stroke="black" stroke-miterlimit="10"/>
<path d="M1400.53 571.088V622.953L1452.41 597.013L1400.53 571.088Z" stroke="black" stroke-miterlimit="10"/>
<path d="M1348.66 597.014V648.893L1400.53 622.954L1348.66 597.014Z" stroke="black" stroke-miterlimit="10"/>
<path d="M1348.66 545.146V597.011L1400.53 571.086L1348.66 545.146Z" stroke="black" stroke-miterlimit="10"/>
<path d="M1400.53 519.209V571.089L1452.41 545.149L1400.53 519.209Z" stroke="black" stroke-miterlimit="10"/>
<path d="M1400.53 467.344V519.208L1452.41 493.269L1400.53 467.344Z" stroke="black" stroke-miterlimit="10"/>
<path d="M1348.66 493.27V545.149L1400.53 519.209L1348.66 493.27Z" stroke="black" stroke-miterlimit="10"/>
<path d="M1348.66 441.406V493.271L1400.53 467.346L1348.66 441.406Z" stroke="black" stroke-miterlimit="10"/>
<path d="M1400.53 415.465V467.345L1452.41 441.405L1400.53 415.465Z" stroke="black" stroke-miterlimit="10"/>
<path d="M1348.66 389.541V441.406L1400.53 415.466L1348.66 389.541Z" stroke="black" stroke-miterlimit="10"/>
<path d="M1452.41 752.639V804.503L1504.27 778.564L1452.41 752.639Z" stroke="black" stroke-miterlimit="10"/>
<path d="M1504.27 726.699V778.564L1556.15 752.639L1504.27 726.699Z" stroke="black" stroke-miterlimit="10"/>
<path d="M1504.27 674.834V726.699L1556.15 700.759L1504.27 674.834Z" stroke="black" stroke-miterlimit="10"/>
<path d="M1452.41 700.758V752.638L1504.27 726.698L1452.41 700.758Z" stroke="black" stroke-miterlimit="10"/>
<path d="M1452.41 648.893V700.757L1504.27 674.832L1452.41 648.893Z" stroke="black" stroke-miterlimit="10"/>
<path d="M1504.27 622.951V674.831L1556.15 648.891L1504.27 622.951Z" stroke="black" stroke-miterlimit="10"/>
<path d="M1504.27 571.088V622.953L1556.15 597.013L1504.27 571.088Z" stroke="black" stroke-miterlimit="10"/>
<path d="M1452.41 597.014V648.893L1504.27 622.954L1452.41 597.014Z" stroke="black" stroke-miterlimit="10"/>
<path d="M1452.41 545.146V597.011L1504.27 571.086L1452.41 545.146Z" stroke="black" stroke-miterlimit="10"/>
<path d="M1504.27 519.209V571.089L1556.15 545.149L1504.27 519.209Z" stroke="black" stroke-miterlimit="10"/>
<path d="M1504.27 467.344V519.208L1556.15 493.269L1504.27 467.344Z" stroke="black" stroke-miterlimit="10"/>
<path d="M1452.41 493.27V545.149L1504.27 519.209L1452.41 493.27Z" stroke="black" stroke-miterlimit="10"/>
<path d="M1452.41 441.406V493.271L1504.27 467.346L1452.41 441.406Z" stroke="black" stroke-miterlimit="10"/>
<path d="M1504.27 415.465V467.345L1556.15 441.405L1504.27 415.465Z" stroke="black" stroke-miterlimit="10"/>
<path d="M1452.41 389.541V441.406L1504.27 415.466L1452.41 389.541Z" stroke="black" stroke-miterlimit="10"/>
<path d="M1556.15 752.639V804.503L1608.02 778.564L1556.15 752.639Z" stroke="black" stroke-miterlimit="10"/>
<path d="M1608.02 726.699V778.564L1659.9 752.639L1608.02 726.699Z" stroke="black" stroke-miterlimit="10"/>
<path d="M1608.02 674.834V726.699L1659.9 700.759L1608.02 674.834Z" stroke="black" stroke-miterlimit="10"/>
<path d="M1556.15 700.758V752.638L1608.02 726.698L1556.15 700.758Z" stroke="black" stroke-miterlimit="10"/>
<path d="M1556.15 648.893V700.757L1608.02 674.832L1556.15 648.893Z" stroke="black" stroke-miterlimit="10"/>
<path d="M1608.02 622.951V674.831L1659.9 648.891L1608.02 622.951Z" stroke="black" stroke-miterlimit="10"/>
<path d="M1608.02 571.088V622.953L1659.9 597.013L1608.02 571.088Z" stroke="black" stroke-miterlimit="10"/>
<path d="M1556.15 597.014V648.893L1608.02 622.954L1556.15 597.014Z" stroke="black" stroke-miterlimit="10"/>
<path d="M1556.15 545.146V597.011L1608.02 571.086L1556.15 545.146Z" stroke="black" stroke-miterlimit="10"/>
<path d="M1608.02 519.209V571.089L1659.9 545.149L1608.02 519.209Z" stroke="black" stroke-miterlimit="10"/>
<path d="M1608.02 467.344V519.208L1659.9 493.269L1608.02 467.344Z" stroke="black" stroke-miterlimit="10"/>
<path d="M1556.15 493.27V545.149L1608.02 519.209L1556.15 493.27Z" stroke="black" stroke-miterlimit="10"/>
<path d="M1556.15 441.406V493.271L1608.02 467.346L1556.15 441.406Z" stroke="black" stroke-miterlimit="10"/>
<path d="M1608.02 415.465V467.345L1659.9 441.405L1608.02 415.465Z" stroke="black" stroke-miterlimit="10"/>
<path d="M1556.15 389.541V441.406L1608.02 415.466L1556.15 389.541Z" stroke="black" stroke-miterlimit="10"/>
<path d="M1659.9 752.639V804.503L1711.76 778.564L1659.9 752.639Z" stroke="black" stroke-miterlimit="10"/>
<path d="M1711.76 726.699V778.564L1763.64 752.639L1711.76 726.699Z" stroke="black" stroke-miterlimit="10"/>
<path d="M1711.76 674.834V726.699L1763.64 700.759L1711.76 674.834Z" stroke="black" stroke-miterlimit="10"/>
<path d="M1659.9 700.758V752.638L1711.76 726.698L1659.9 700.758Z" stroke="black" stroke-miterlimit="10"/>
<path d="M1659.9 648.893V700.757L1711.76 674.832L1659.9 648.893Z" stroke="black" stroke-miterlimit="10"/>
<path d="M1711.76 622.951V674.831L1763.64 648.891L1711.76 622.951Z" stroke="black" stroke-miterlimit="10"/>
<path d="M1711.76 571.088V622.953L1763.64 597.013L1711.76 571.088Z" stroke="black" stroke-miterlimit="10"/>
<path d="M1659.9 597.014V648.893L1711.76 622.954L1659.9 597.014Z" stroke="black" stroke-miterlimit="10"/>
<path d="M1659.9 545.146V597.011L1711.76 571.086L1659.9 545.146Z" stroke="black" stroke-miterlimit="10"/>
<path d="M1711.76 519.209V571.089L1763.64 545.149L1711.76 519.209Z" stroke="black" stroke-miterlimit="10"/>
<path d="M1711.76 467.344V519.208L1763.64 493.269L1711.76 467.344Z" stroke="black" stroke-miterlimit="10"/>
<path d="M1659.9 493.27V545.149L1711.76 519.209L1659.9 493.27Z" stroke="black" stroke-miterlimit="10"/>
<path d="M1659.9 441.406V493.271L1711.76 467.346L1659.9 441.406Z" stroke="black" stroke-miterlimit="10"/>
<path d="M1711.76 415.465V467.345L1763.64 441.405L1711.76 415.465Z" stroke="black" stroke-miterlimit="10"/>
<path d="M1659.9 389.541V441.406L1711.76 415.466L1659.9 389.541Z" stroke="black" stroke-miterlimit="10"/>
<path d="M1763.64 752.639V804.503L1815.51 778.564L1763.64 752.639Z" stroke="black" stroke-miterlimit="10"/>
<path d="M1815.51 726.699V778.564L1867.37 752.639L1815.51 726.699Z" stroke="black" stroke-miterlimit="10"/>
<path d="M1815.51 674.834V726.699L1867.37 700.759L1815.51 674.834Z" stroke="black" stroke-miterlimit="10"/>
<path d="M1763.64 700.758V752.638L1815.51 726.698L1763.64 700.758Z" stroke="black" stroke-miterlimit="10"/>
<path d="M1763.64 648.893V700.757L1815.51 674.832L1763.64 648.893Z" stroke="black" stroke-miterlimit="10"/>
<path d="M1815.51 622.951V674.831L1867.37 648.891L1815.51 622.951Z" stroke="black" stroke-miterlimit="10"/>
<path d="M1815.51 571.088V622.953L1867.37 597.013L1815.51 571.088Z" stroke="black" stroke-miterlimit="10"/>
<path d="M1763.64 597.014V648.893L1815.51 622.954L1763.64 597.014Z" stroke="black" stroke-miterlimit="10"/>
<path d="M1763.64 545.146V597.011L1815.51 571.086L1763.64 545.146Z" stroke="black" stroke-miterlimit="10"/>
<path d="M1815.51 519.209V571.089L1867.37 545.149L1815.51 519.209Z" stroke="black" stroke-miterlimit="10"/>
<path d="M1815.51 467.344V519.208L1867.37 493.269L1815.51 467.344Z" stroke="black" stroke-miterlimit="10"/>
<path d="M1763.64 493.27V545.149L1815.51 519.209L1763.64 493.27Z" stroke="black" stroke-miterlimit="10"/>
<path d="M1763.64 441.406V493.271L1815.51 467.346L1763.64 441.406Z" stroke="black" stroke-miterlimit="10"/>
<path d="M1815.51 415.465V467.345L1867.37 441.405L1815.51 415.465Z" stroke="black" stroke-miterlimit="10"/>
<path d="M1763.64 389.541V441.406L1815.51 415.466L1763.64 389.541Z" stroke="black" stroke-miterlimit="10"/>
<path d="M1867.37 752.639V804.503L1919.25 778.564L1867.37 752.639Z" stroke="black" stroke-miterlimit="10"/>
<path d="M1867.37 700.758V752.638L1919.25 726.698L1867.37 700.758Z" stroke="black" stroke-miterlimit="10"/>
<path d="M1867.37 648.893V700.757L1919.25 674.832L1867.37 648.893Z" stroke="black" stroke-miterlimit="10"/>
<path d="M1867.37 597.014V648.893L1919.25 622.954L1867.37 597.014Z" stroke="black" stroke-miterlimit="10"/>
<path d="M1867.37 545.146V597.011L1919.25 571.086L1867.37 545.146Z" stroke="black" stroke-miterlimit="10"/>
<path d="M1867.37 493.27V545.149L1919.25 519.209L1867.37 493.27Z" stroke="black" stroke-miterlimit="10"/>
<path d="M1867.37 441.406V493.271L1919.25 467.346L1867.37 441.406Z" stroke="black" stroke-miterlimit="10"/>
<path d="M1867.37 389.541V441.406L1919.25 415.466L1867.37 389.541Z" stroke="black" stroke-miterlimit="10"/>
<path d="M311.128 337.706V442.665L620.008 285.227H623.007" stroke="black"/>
</svg>
