<svg width="204" height="157" viewBox="0 0 204 157" fill="none" xmlns="http://www.w3.org/2000/svg">
<path d="M161.043 132.466L159.263 130.971L168.939 127.244L170.719 128.736L161.043 132.466Z" fill="#8E0027"/>
<path d="M194.324 84.318L192.545 82.8257L202.22 79.0938L204 80.5884L194.324 84.318Z" fill="#8E0027"/>
<path d="M172.847 110.256L171.067 108.764L172.131 99.5234L173.911 101.016L172.847 110.256Z" fill="#7C0022"/>
<path d="M151.368 136.194L149.59 134.702L151.716 116.221L153.496 117.713L151.368 136.194Z" fill="#7C0022"/>
<path d="M174.973 91.7755L173.193 90.2832L181.807 95.7942L183.587 97.2888L174.973 91.7755Z" fill="#9D002B"/>
<path d="M185.713 78.8078L183.935 77.3132L193.609 73.5859L195.389 75.0782L185.713 78.8078Z" fill="#8E0027"/>
<path d="M154.56 108.475L152.78 106.982L161.392 112.491L163.169 113.986L154.56 108.475Z" fill="#9D002B"/>
<path d="M165.297 95.5074L163.518 94.0128L173.193 90.2832L174.973 91.7755L165.297 95.5074Z" fill="#8E0027"/>
<path d="M144.884 112.204L143.104 110.71L152.78 106.982L154.56 108.475L144.884 112.204Z" fill="#8E0027"/>
<path d="M176.037 82.5375L174.257 81.0452L175.322 71.8047L177.101 73.297L176.037 82.5375Z" fill="#7C0022"/>
<path d="M181.463 62.7351L179.683 61.2405L186.061 58.834L187.841 60.3286L181.463 62.7351Z" fill="#8E0027"/>
<path d="M124.469 128.905L122.689 127.41L131.301 132.921L133.08 134.413L124.469 128.905Z" fill="#9D002B"/>
<path d="M156.688 89.9943L154.908 88.502L163.518 94.0129L165.297 95.5076L156.688 89.9943Z" fill="#9D002B"/>
<path d="M171.79 66.4645L170.01 64.9698L179.683 61.2402L181.463 62.7349L171.79 66.4645Z" fill="#8E0027"/>
<path d="M136.271 106.693L134.493 105.201L143.105 110.71L144.884 112.204L136.271 106.693Z" fill="#9D002B"/>
<path d="M114.793 132.634L113.013 131.139L114.078 121.898L115.857 123.393L114.793 132.634Z" fill="#7C0022"/>
<path d="M148.074 84.4849L146.297 82.9902L154.908 88.5012L156.688 89.9935L148.074 84.4849Z" fill="#9D002B"/>
<path d="M152.441 73.9245L150.661 72.4299L170.01 64.9707L171.79 66.4654L152.441 73.9245Z" fill="#8E0027"/>
<path d="M94.766 157.001L92.9862 155.506L93.6645 138.6L95.4443 140.094L94.766 157.001Z" fill="#7C0022"/>
<path d="M116.922 114.153L115.142 112.658L123.753 118.169L125.533 119.664L116.922 114.153Z" fill="#9D002B"/>
<path d="M126.595 110.423L124.815 108.928L125.879 99.6875L127.659 101.182L126.595 110.423Z" fill="#7C0022"/>
<path d="M149.139 75.2451L147.359 73.7504L150.661 72.4297L152.441 73.9243L149.139 75.2451Z" fill="#8E0026"/>
<path d="M87.8947 125.342L86.1149 123.85L103.338 134.867L105.118 136.361L87.8947 125.342Z" fill="#9D002B"/>
<path d="M107.246 117.884L105.466 116.389L107.594 97.9102L109.374 99.4025L107.246 117.884Z" fill="#7C0022"/>
<path d="M141.591 60.4966L139.812 59.002L148.423 64.5129L150.203 66.0076L141.591 60.4966Z" fill="#9D002B"/>
<path d="M78.219 129.071L76.4392 127.576L77.5034 118.336L79.2832 119.831L78.219 129.071Z" fill="#7C0022"/>
<path d="M79.2832 119.831L77.5034 118.337L87.179 114.609L88.9588 116.102L79.2832 119.831Z" fill="#8E0027"/>
<path d="M88.9588 116.102L87.179 114.61L90.3714 86.8906L92.1513 88.3829L88.9588 116.102Z" fill="#7C0022"/>
<path d="M145.846 23.5376L144.066 22.043L152.68 27.5516L154.457 29.0462L145.846 23.5376Z" fill="#9D002B"/>
<path d="M51.3204 121.779L49.5406 120.287L58.1544 125.796L59.9342 127.29L51.3204 121.779Z" fill="#9D002B"/>
<path d="M62.0602 108.812L60.2804 107.317L69.956 103.588L71.7359 105.08L62.0602 108.812Z" fill="#8E0027"/>
<path d="M59.9343 127.29L58.1544 125.795L60.2804 107.316L62.0602 108.811L59.9343 127.29Z" fill="#7C0022"/>
<path d="M137.234 18.0259L135.454 16.5312L144.066 22.0446L145.846 23.5392L137.234 18.0259Z" fill="#9D002B"/>
<path d="M41.6448 125.509L39.8649 124.014L49.5406 120.287L51.3204 121.779L41.6448 125.509Z" fill="#8E0027"/>
<path d="M33.0356 119.998L31.2558 118.506L39.8649 124.014L41.6448 125.509L33.0356 119.998Z" fill="#9D002B"/>
<path d="M22.2958 132.968L20.516 131.473L21.5801 122.232L23.36 123.727L22.2958 132.968Z" fill="#7C0022"/>
<path d="M23.36 123.728L21.5801 122.233L31.2558 118.506L33.0356 119.998L23.36 123.728Z" fill="#8E0027"/>
<path d="M35.1616 101.519L33.3841 100.025L62.4087 88.8359L64.1885 90.3306L35.1616 101.519Z" fill="#8E0027"/>
<path d="M56.6412 75.5793L54.8614 74.087L64.537 70.3574L66.3169 71.8521L56.6412 75.5793Z" fill="#8E0027"/>
<path d="M66.3168 71.8524L64.537 70.3577L65.6011 61.1172L67.381 62.6118L66.3168 71.8524Z" fill="#7C0022"/>
<path d="M24.4218 114.487L22.642 112.992L23.7061 103.754L25.486 105.249L24.4218 114.487Z" fill="#7C0022"/>
<path d="M111.4 1.49466L109.62 0L135.454 16.5305L137.234 18.0252L111.4 1.49466Z" fill="#9D002B"/>
<path d="M26.5501 96.009L24.7703 94.5144L34.4459 90.7871L36.2257 92.2794L26.5501 96.009Z" fill="#8E0027"/>
<path d="M48.0274 70.0708L46.2476 68.5762L54.8614 74.0871L56.6412 75.5794L48.0274 70.0708Z" fill="#9D002B"/>
<path d="M38.3541 73.7981L36.5742 72.3058L46.2475 68.5762L48.0274 70.0708L38.3541 73.7981Z" fill="#8E0027"/>
<path d="M7.20116 103.468L5.42133 101.973L24.7703 94.5137L26.5501 96.0083L7.20116 103.468Z" fill="#8E0027"/>
<path d="M6.13701 112.706L4.35718 111.211L5.42133 101.973L7.20117 103.467L6.13701 112.706Z" fill="#7C0022"/>
<path d="M82.3727 12.6811L80.5929 11.1888L109.62 0L111.4 1.49466L82.3727 12.6811Z" fill="#8E0027"/>
<path d="M28.6785 77.5301L26.8986 76.0355L27.9628 66.7949L29.7426 68.2896L28.6785 77.5301Z" fill="#7C0022"/>
<path d="M72.6994 16.4137L70.9196 14.919L80.5929 11.1895L82.3727 12.6818L72.6994 16.4137Z" fill="#8E0027"/>
<path d="M58.7672 57.1006L56.9874 55.6083L61.244 18.6484L63.0238 20.1407L58.7672 57.1006Z" fill="#7C0022"/>
<path d="M63.0238 20.1399L61.244 18.6476L70.9196 14.918L72.6994 16.4126L63.0238 20.1399Z" fill="#8E0027"/>
<path d="M22.1929 53.5372L20.4131 52.0449L37.6384 63.0645L39.4182 64.5568L22.1929 53.5372Z" fill="#9D002B"/>
<path d="M12.5196 57.2668L10.7398 55.7722L20.4131 52.0449L22.1929 53.5372L12.5196 57.2668Z" fill="#8E0027"/>
<path d="M1.77983 70.2372L0 68.7425L1.06416 59.502L2.84399 60.9966L1.77983 70.2372Z" fill="#7C0022"/>
<path d="M2.84398 60.9957L1.06415 59.5011L10.7398 55.7715L12.5196 57.2661L2.84398 60.9957Z" fill="#8E0027"/>
<path d="M111.4 1.49414L137.234 18.0247L145.846 23.538L154.457 29.0466L151.267 56.7659L141.591 60.4955L150.203 66.0064L149.139 75.2446L152.441 73.9239L171.79 66.4647L181.463 62.7351L187.841 60.3286L185.713 78.8073L195.389 75.0778L194.324 84.3183L204 80.5887L202.936 89.8293L193.26 93.5565L176.037 82.5369L177.101 73.2964L148.075 84.4852L156.688 89.9938L165.297 95.5071L174.973 91.7751L183.587 97.2884L182.523 106.527L172.847 110.256L173.911 101.016L164.233 104.745L155.624 99.2343L145.949 102.964L137.335 97.4553L136.271 106.693L144.884 112.204L154.56 108.475L163.169 113.986L161.043 132.465L170.719 128.735L169.655 137.976L159.979 141.705L151.368 136.194L153.496 117.713L143.82 121.445L135.209 115.932L126.595 110.423L127.659 101.183L117.986 104.914L116.922 114.153L125.533 119.664L124.469 128.904L133.08 134.413L123.407 138.142L114.793 132.634L115.857 123.393L107.246 117.882L109.374 99.4012L99.6986 103.133L97.5727 121.612L87.8947 125.341L105.118 136.361L104.442 153.272L94.7661 156.999L95.4444 140.093L78.2191 129.071L79.2832 119.83L88.9588 116.101L92.1513 88.3816L82.4757 92.1112L80.3474 110.592L70.6717 114.32L68.5434 132.798L58.8701 136.53L50.2563 131.017L40.583 134.749L31.9715 129.236L22.2959 132.967L23.36 123.727L33.0357 119.997L41.6448 125.508L51.3204 121.779L59.9343 127.29L62.0602 108.811L71.7359 105.079L63.1244 99.5704L53.4488 103.298L52.3846 112.538L43.7731 107.03L24.4218 114.486L25.486 105.248L15.8103 108.975L6.13704 112.705L7.2012 103.467L26.5501 96.0076L36.2258 92.2781L35.1616 101.519L64.1886 90.3298L46.9632 79.3079L37.2899 83.0375L28.6785 77.5289L29.7426 68.2883L21.1288 62.7774L11.4555 66.507L10.3913 75.7475L1.77985 70.2366L2.844 60.996L12.5196 57.2664L22.1929 53.5368L39.4183 64.5564L38.3541 73.797L48.0274 70.0697L56.6412 75.5783L66.3169 71.8511L67.381 62.6105L58.7672 57.0996L63.0238 20.1397L72.6995 16.4125L82.3728 12.6806L111.4 1.49414Z" fill="#D7003A"/>
</svg>
