<svg width="432" height="239" viewBox="0 0 432 239" fill="none" xmlns="http://www.w3.org/2000/svg">
<path d="M293.128 44.0845V52.21V60.3334L284.986 64.3961V72.5195L293.128 68.4568V76.5822L301.272 72.5195V64.3961V56.2707V48.1473V40.0218V31.8984L293.128 35.9612V44.0845Z" fill="black"/>
<path d="M276.843 68.4581V60.3348V52.2114V44.0859L268.701 48.1487V56.272V64.3975V72.5209V80.6442V88.7697L276.843 84.707L284.987 80.6442V72.5209L276.843 76.5836V68.4581Z" fill="black"/>
<path d="M252.415 64.397V72.5204L244.274 76.5831V68.4577V60.3343L236.13 64.397V72.5204V80.6438V88.7693V96.8926V105.018L244.274 100.955V92.832V84.7065L252.415 80.6438V88.7693V96.8926L260.559 92.832V84.7065V76.5831V68.4577V60.3343V52.2109L252.415 56.2716V64.397Z" fill="black"/>
<path d="M211.712 76.5825L203.57 80.6432V121.264L211.712 117.204V100.955L219.856 96.892L227.997 92.8313V68.457L219.839 72.5198L211.712 76.5825ZM219.856 88.7686L211.712 92.8313V84.7059L219.839 80.6432L219.856 88.7686Z" fill="black"/>
<path d="M179.135 92.8305L170.991 96.8912V105.017V113.14V121.263V129.389V137.512L179.135 133.45L187.277 129.389L195.42 125.326V117.203L187.277 121.263L179.135 125.326V117.203L187.277 113.14L195.42 109.077V100.954L187.277 105.017L179.135 109.077V100.954L187.277 96.8912L195.42 92.8305V84.7051L187.277 88.7678L179.135 92.8305Z" fill="black"/>
<path d="M154.708 113.141V105.018L146.565 109.078L138.423 113.141L130.279 117.204V157.825L138.423 153.762L146.565 149.699L154.708 145.639L162.85 141.576V117.204L154.708 121.264V113.141ZM154.708 137.513L146.565 141.576L138.423 145.639V137.513L146.565 133.45L154.708 129.39V137.513ZM146.565 125.327L138.423 129.39V121.264L146.565 117.204V125.327Z" fill="black"/>
<path d="M105.852 129.389L97.71 133.45V141.575V149.699V157.824V165.947V174.071L105.852 170.01L113.995 165.947L122.137 161.885V153.761L113.995 157.824L105.852 161.885V153.761L113.995 149.699L122.137 145.638V137.513L113.995 141.575L105.852 145.638V137.513L113.995 133.45L122.137 129.389V121.264L113.995 125.326L105.852 129.389Z" fill="black"/>
<path d="M73.2834 145.639L65.1396 149.7V190.321L73.2834 186.26V170.011L81.425 165.949L89.5667 161.886V137.514L81.425 141.576L73.2834 145.639ZM81.425 157.825L73.2834 161.886V153.762L81.425 149.7V157.825Z" fill="black"/>
<path d="M40.712 161.885L32.5703 165.948V174.071V182.197V190.32V198.445V206.569L40.712 202.506L48.8536 198.445L56.9973 194.383V186.259L48.8536 190.32L40.712 194.383V186.259L48.8536 182.197L56.9973 178.134V170.011L48.8536 174.071L40.712 178.134V170.011L48.8536 165.948L56.9973 161.885V153.762L48.8536 157.824L40.712 161.885Z" fill="black"/>
<path d="M8.14165 178.135L0 182.198V190.321V198.447V206.57V214.693V222.819L8.14165 218.756V210.633V202.507V194.384V186.261L16.2854 182.198V190.321V198.447V206.57V214.693L24.427 210.633V202.507V194.384V186.261V178.135V170.012L16.2854 174.072L8.14165 178.135Z" fill="black"/>
<path d="M358.268 12.1861L366.409 8.12546V0L358.268 4.06273L350.126 8.12546L341.982 12.1861V20.3116V28.4349V36.5583V44.6838V52.8072L350.126 48.7465L358.268 44.6838L366.409 40.621V32.4977L358.268 36.5583L350.126 40.621V32.4977L358.268 28.4349L366.409 24.3722V16.2488L358.268 20.3116L350.126 24.3722V16.2488L358.268 12.1861Z" fill="black"/>
<path d="M317.555 24.3714L309.413 28.4342V36.5575L317.555 32.4969V40.6203V48.7457V56.8691V64.9925L325.696 60.9318V52.8064V44.683V36.5575V28.4342L333.84 24.3714V16.248L325.696 20.3108L317.555 24.3714Z" fill="black"/>
<path d="M390.919 68.0594V51.8105L382.777 55.8733L374.636 59.936L366.494 63.9966V104.618L374.636 100.557L382.78 96.4943L390.921 92.4315L399.065 88.3709V63.9966L390.919 68.0594ZM374.634 68.0594L382.777 63.9966V72.1221L374.636 76.1848L374.634 68.0594ZM390.919 84.3082L382.777 88.3709L374.636 92.4253V84.3165L382.78 80.2538L390.921 76.1932L390.919 84.3082Z" fill="black"/>
<path d="M342.065 76.186L333.921 80.2467V88.3721L342.065 84.3094V92.4328V100.558V108.682V116.807L350.206 112.744V104.619V96.4955V88.3721V80.2467L358.35 76.186V68.0605L350.206 72.1233L342.065 76.186Z" fill="black"/>
<path d="M309.495 92.432L301.354 96.4947V104.618V112.744V120.867V128.992V137.116L309.495 133.053L317.639 128.992L325.781 124.93V116.806L317.639 120.867L309.495 124.93V116.806V108.681V100.557L317.639 96.4947L325.781 92.432V84.3086L317.639 88.3713L309.495 92.432Z" fill="black"/>
<path d="M285.067 112.743V120.866V128.992L276.926 133.052V141.178L285.067 137.115V145.238L293.211 141.178V133.052V124.929V116.805V108.68V100.557L285.067 104.617V112.743Z" fill="black"/>
<path d="M285.068 96.4964V88.373L276.926 92.4337L268.782 96.4964V104.62L276.926 100.559L285.068 96.4964Z" fill="black"/>
<path d="M268.782 137.116V128.993V120.868V112.744L260.641 116.807V124.93V133.054V141.179V149.302V157.426L268.782 153.365L276.926 149.302V141.179L268.782 145.24V137.116Z" fill="black"/>
<path d="M236.214 128.993L228.07 133.053V173.674L236.214 169.614L244.356 165.551L252.499 161.488V120.867L244.356 124.93L236.214 128.993ZM244.356 141.179V157.426L236.214 161.488V137.116L244.356 133.053V141.179Z" fill="black"/>
<path d="M203.643 145.237L195.501 149.299V189.92L203.643 185.858V169.611L211.786 165.548L219.928 161.485V137.113L211.786 141.176L203.643 145.237ZM211.786 157.423L203.643 161.485V153.362L211.786 149.299V157.423Z" fill="black"/>
<path d="M171.074 161.489L162.931 165.551V173.675L171.074 169.614V177.737V185.861V193.986V202.11L179.216 198.047V189.924V181.8V173.675V165.551L187.358 161.489V153.365L179.216 157.426L171.074 161.489Z" fill="black"/>
<path d="M138.503 177.737L130.361 181.799V189.923V198.046V206.172V214.295V222.42L138.503 218.358L146.645 214.295L154.788 210.234V202.109L146.645 206.172L138.503 210.234V202.109V193.985V185.86L146.645 181.799L154.788 177.737V169.613L146.645 173.674L138.503 177.737Z" fill="black"/>
<path d="M114.076 198.045V206.171L105.933 210.234V202.108V193.985L97.791 198.045V206.171V214.294V222.42L105.933 218.357L114.076 214.294V222.42L105.933 226.48L97.791 230.543V238.667L105.933 234.606L114.076 230.543L122.218 226.48V218.357V210.234V202.108V193.985V185.859L114.076 189.922V198.045Z" fill="black"/>
<path d="M414.93 40.1255L406.788 44.1882V84.8071L414.93 80.7465L423.071 76.6838L431.215 72.6211V32L423.071 36.0627L414.93 40.1255ZM423.071 52.3115V68.5605L414.93 72.6211V48.2488L423.071 44.1882V52.3115Z" fill="black"/>
</svg>
