<svg width="673" height="198" viewBox="0 0 673 198" fill="none" xmlns="http://www.w3.org/2000/svg">
<rect x="0.5" y="0.5" width="671.936" height="196.742" fill="white" stroke="black"/>
<line x1="616.13" y1="28.9746" x2="643.472" y2="56.3167" stroke="black"/>
<line y1="-0.5" x2="38.6676" y2="-0.5" transform="matrix(-0.707107 0.707107 0.707107 0.707107 643.119 29.3281)" stroke="black"/>
<path d="M86.856 61.256C88.712 61.256 90.176 61.704 91.248 62.6C92.32 63.496 92.856 64.72 92.856 66.272V66.536C92.856 68.104 92.32 69.336 91.248 70.232C90.176 71.128 88.712 71.576 86.856 71.576H80.472V77H76.872V61.256H86.856ZM86.76 68.384C87.544 68.384 88.144 68.232 88.56 67.928C88.976 67.608 89.184 67.144 89.184 66.536V66.272C89.184 65.68 88.976 65.232 88.56 64.928C88.144 64.608 87.544 64.448 86.76 64.448H80.472V68.384H86.76ZM111.421 73.952V77H109.381C108.645 77 108.005 76.88 107.461 76.64C106.933 76.384 106.533 76.024 106.261 75.56C105.045 76.712 103.317 77.288 101.077 77.288C99.3813 77.288 98.0613 76.968 97.1173 76.328C96.1733 75.688 95.7013 74.792 95.7013 73.64C95.7013 72.664 96.0533 71.888 96.7573 71.312C97.4613 70.72 98.4853 70.352 99.8293 70.208L105.757 69.56C105.565 68.376 104.493 67.784 102.541 67.784C101.517 67.784 100.717 67.928 100.141 68.216C99.5813 68.488 99.3013 68.872 99.3013 69.368V69.44H95.7973V69.368C95.7973 68.424 96.0693 67.6 96.6133 66.896C97.1733 66.192 97.9653 65.648 98.9893 65.264C100.013 64.88 101.205 64.688 102.565 64.688C104.677 64.688 106.317 65.16 107.485 66.104C108.669 67.048 109.261 68.352 109.261 70.016V72.992C109.261 73.632 109.629 73.952 110.365 73.952H111.421ZM101.317 74.504C102.341 74.504 103.245 74.352 104.029 74.048C104.829 73.728 105.413 73.304 105.781 72.776V71.96L100.741 72.536C100.213 72.6 99.8213 72.712 99.5653 72.872C99.3093 73.032 99.1813 73.256 99.1813 73.544C99.1813 74.184 99.8933 74.504 101.317 74.504ZM130.569 73.952V80.072H127.089V77H116.361V80.072H112.881V73.952H114.753C115.105 73.392 115.369 72.784 115.545 72.128C115.721 71.472 115.817 70.704 115.833 69.824L115.929 64.976H128.289V73.952H130.569ZM124.809 73.952V68.048H119.097L119.049 69.848C119.017 70.776 118.929 71.56 118.785 72.2C118.641 72.84 118.417 73.424 118.113 73.952H124.809ZM141.842 67.976C143.458 67.976 144.722 68.376 145.634 69.176C146.562 69.96 147.026 71.032 147.026 72.392V72.656C147.026 73.984 146.562 75.04 145.634 75.824C144.722 76.608 143.458 77 141.842 77H133.49V64.976H136.946V67.976H141.842ZM151.73 64.976V77H148.274V64.976H151.73ZM143.45 72.368C143.45 71.904 143.29 71.544 142.97 71.288C142.666 71.032 142.21 70.904 141.602 70.904H136.946V74.072H141.602C142.21 74.072 142.666 73.952 142.97 73.712C143.29 73.456 143.45 73.104 143.45 72.656V72.368ZM179.156 70.88C180.324 71.392 180.908 72.224 180.908 73.376V73.616C180.908 74.704 180.476 75.544 179.612 76.136C178.748 76.712 177.508 77 175.892 77H166.724V64.976H175.532C177.148 64.976 178.396 65.264 179.276 65.84C180.156 66.416 180.596 67.24 180.596 68.312V68.552C180.596 69.592 180.116 70.368 179.156 70.88ZM170.204 67.52V69.728H175.292C175.852 69.728 176.276 69.64 176.564 69.464C176.852 69.288 176.996 69.04 176.996 68.72V68.48C176.996 67.84 176.428 67.52 175.292 67.52H170.204ZM177.332 73.184C177.332 72.864 177.18 72.616 176.876 72.44C176.588 72.264 176.172 72.176 175.628 72.176H170.204V74.456H175.628C176.764 74.456 177.332 74.112 177.332 73.424V73.184ZM188.059 64.976V72.776L195.187 64.976H198.331V77H194.995V69.2L187.867 77H184.723V64.976H188.059ZM219.064 73.952V80.072H215.584V77H204.856V80.072H201.376V73.952H203.248C203.6 73.392 203.864 72.784 204.04 72.128C204.216 71.472 204.312 70.704 204.328 69.824L204.424 64.976H216.784V73.952H219.064ZM213.304 73.952V68.048H207.592L207.544 69.848C207.512 70.776 207.424 71.56 207.28 72.2C207.136 72.84 206.912 73.424 206.608 73.952H213.304ZM235.028 72.008H224.324C224.436 72.76 224.804 73.336 225.428 73.736C226.052 74.136 226.892 74.336 227.948 74.336C228.908 74.336 229.692 74.208 230.3 73.952C230.908 73.696 231.26 73.344 231.356 72.896H235.004C234.828 74.304 234.124 75.392 232.892 76.16C231.676 76.912 230.028 77.288 227.948 77.288C226.476 77.288 225.196 77.048 224.108 76.568C223.02 76.072 222.188 75.368 221.612 74.456C221.036 73.544 220.748 72.472 220.748 71.24V70.784C220.748 69.536 221.036 68.456 221.612 67.544C222.204 66.616 223.036 65.912 224.108 65.432C225.196 64.936 226.476 64.688 227.948 64.688C230.188 64.688 231.924 65.224 233.156 66.296C234.404 67.352 235.028 68.84 235.028 70.76V72.008ZM227.924 67.592C226.996 67.592 226.228 67.76 225.62 68.096C225.012 68.432 224.612 68.904 224.42 69.512H231.356C231.164 68.904 230.772 68.432 230.18 68.096C229.588 67.76 228.836 67.592 227.924 67.592ZM236.788 68.096V64.976H250.66V68.096H245.5V77H241.996V68.096H236.788ZM262.743 67.976C264.343 67.976 265.599 68.368 266.511 69.152C267.439 69.936 267.903 71.008 267.903 72.368V72.632C267.903 73.976 267.439 75.04 266.511 75.824C265.583 76.592 264.327 76.976 262.743 76.976H253.719V64.976H257.199V67.976H262.743ZM264.351 72.368C264.351 71.904 264.191 71.552 263.871 71.312C263.567 71.056 263.111 70.928 262.503 70.928H257.199V74.024H262.503C263.095 74.024 263.551 73.904 263.871 73.664C264.191 73.424 264.351 73.08 264.351 72.632V72.368ZM294.579 70.88C295.747 71.392 296.331 72.224 296.331 73.376V73.616C296.331 74.704 295.899 75.544 295.035 76.136C294.171 76.712 292.931 77 291.315 77H282.147V64.976H290.955C292.571 64.976 293.819 65.264 294.699 65.84C295.579 66.416 296.019 67.24 296.019 68.312V68.552C296.019 69.592 295.539 70.368 294.579 70.88ZM285.627 67.52V69.728H290.715C291.275 69.728 291.699 69.64 291.987 69.464C292.275 69.288 292.419 69.04 292.419 68.72V68.48C292.419 67.84 291.851 67.52 290.715 67.52H285.627ZM292.755 73.184C292.755 72.864 292.603 72.616 292.299 72.44C292.011 72.264 291.595 72.176 291.051 72.176H285.627V74.456H291.051C292.187 74.456 292.755 74.112 292.755 73.424V73.184ZM315.41 73.952V77H313.37C312.634 77 311.994 76.88 311.45 76.64C310.922 76.384 310.522 76.024 310.25 75.56C309.034 76.712 307.306 77.288 305.066 77.288C303.37 77.288 302.05 76.968 301.106 76.328C300.162 75.688 299.69 74.792 299.69 73.64C299.69 72.664 300.042 71.888 300.746 71.312C301.45 70.72 302.474 70.352 303.818 70.208L309.746 69.56C309.554 68.376 308.482 67.784 306.53 67.784C305.506 67.784 304.706 67.928 304.13 68.216C303.57 68.488 303.29 68.872 303.29 69.368V69.44H299.786V69.368C299.786 68.424 300.058 67.6 300.602 66.896C301.162 66.192 301.954 65.648 302.978 65.264C304.002 64.88 305.194 64.688 306.554 64.688C308.666 64.688 310.306 65.16 311.474 66.104C312.658 67.048 313.25 68.352 313.25 70.016V72.992C313.25 73.632 313.618 73.952 314.354 73.952H315.41ZM305.306 74.504C306.33 74.504 307.234 74.352 308.018 74.048C308.818 73.728 309.402 73.304 309.77 72.776V71.96L304.73 72.536C304.202 72.6 303.81 72.712 303.554 72.872C303.298 73.032 303.17 73.256 303.17 73.544C303.17 74.184 303.882 74.504 305.306 74.504ZM324.694 77.288C323.222 77.288 321.934 77.04 320.83 76.544C319.742 76.048 318.902 75.344 318.31 74.432C317.734 73.52 317.446 72.44 317.446 71.192V70.88C317.446 69.616 317.734 68.52 318.31 67.592C318.902 66.664 319.742 65.952 320.83 65.456C321.934 64.944 323.222 64.688 324.694 64.688C326.054 64.688 327.27 64.92 328.342 65.384C329.43 65.832 330.27 66.464 330.862 67.28C331.47 68.08 331.774 69 331.774 70.04V70.136H328.198V70.04C328.198 69.4 327.87 68.88 327.214 68.48C326.574 68.064 325.734 67.856 324.694 67.856C323.51 67.856 322.606 68.12 321.982 68.648C321.358 69.16 321.046 69.912 321.046 70.904V71.168C321.046 72.128 321.358 72.864 321.982 73.376C322.606 73.872 323.51 74.12 324.694 74.12C325.75 74.12 326.598 73.928 327.238 73.544C327.878 73.144 328.198 72.616 328.198 71.96V71.864H331.774V71.96C331.774 73.016 331.478 73.952 330.886 74.768C330.31 75.568 329.486 76.192 328.414 76.64C327.358 77.072 326.118 77.288 324.694 77.288ZM358.325 70.88C359.493 71.392 360.077 72.224 360.077 73.376V73.616C360.077 74.704 359.645 75.544 358.781 76.136C357.917 76.712 356.677 77 355.061 77H345.893V64.976H354.701C356.317 64.976 357.565 65.264 358.445 65.84C359.325 66.416 359.765 67.24 359.765 68.312V68.552C359.765 69.592 359.285 70.368 358.325 70.88ZM349.373 67.52V69.728H354.461C355.021 69.728 355.445 69.64 355.733 69.464C356.021 69.288 356.165 69.04 356.165 68.72V68.48C356.165 67.84 355.597 67.52 354.461 67.52H349.373ZM356.501 73.184C356.501 72.864 356.349 72.616 356.045 72.44C355.757 72.264 355.341 72.176 354.797 72.176H349.373V74.456H354.797C355.933 74.456 356.501 74.112 356.501 73.424V73.184ZM386.198 70.904C386.79 71.176 387.238 71.536 387.542 71.984C387.862 72.416 388.022 72.904 388.022 73.448V73.616C388.022 74.816 387.43 75.728 386.246 76.352C385.078 76.976 383.366 77.288 381.11 77.288C378.598 77.288 376.742 76.864 375.542 76.016C374.342 75.152 373.742 73.824 373.742 72.032V71.888H377.102V72.032C377.102 72.88 377.422 73.504 378.062 73.904C378.702 74.288 379.726 74.48 381.134 74.48C382.206 74.48 383.014 74.384 383.558 74.192C384.118 73.984 384.398 73.696 384.398 73.328V73.184C384.398 72.864 384.246 72.632 383.942 72.488C383.638 72.344 383.158 72.272 382.502 72.272H378.926V69.632H382.262C382.902 69.632 383.366 69.56 383.654 69.416C383.958 69.272 384.11 69.04 384.11 68.72V68.576C384.11 68.224 383.83 67.96 383.27 67.784C382.71 67.608 381.894 67.52 380.822 67.52C379.494 67.52 378.542 67.712 377.966 68.096C377.39 68.464 377.102 69.088 377.102 69.968V70.112H373.742V69.968C373.742 66.448 376.158 64.688 380.99 64.688C383.118 64.688 384.766 65.008 385.934 65.648C387.102 66.288 387.686 67.2 387.686 68.384V68.552C387.686 69.528 387.19 70.312 386.198 70.904ZM407.092 73.952V77H405.052C404.316 77 403.676 76.88 403.132 76.64C402.604 76.384 402.204 76.024 401.932 75.56C400.716 76.712 398.988 77.288 396.748 77.288C395.052 77.288 393.732 76.968 392.788 76.328C391.844 75.688 391.372 74.792 391.372 73.64C391.372 72.664 391.724 71.888 392.428 71.312C393.132 70.72 394.156 70.352 395.5 70.208L401.428 69.56C401.236 68.376 400.164 67.784 398.212 67.784C397.188 67.784 396.388 67.928 395.812 68.216C395.252 68.488 394.972 68.872 394.972 69.368V69.44H391.468V69.368C391.468 68.424 391.74 67.6 392.284 66.896C392.844 66.192 393.636 65.648 394.66 65.264C395.684 64.88 396.876 64.688 398.236 64.688C400.348 64.688 401.988 65.16 403.156 66.104C404.34 67.048 404.932 68.352 404.932 70.016V72.992C404.932 73.632 405.3 73.952 406.036 73.952H407.092ZM396.988 74.504C398.012 74.504 398.916 74.352 399.7 74.048C400.5 73.728 401.084 73.304 401.452 72.776V71.96L396.412 72.536C395.884 72.6 395.492 72.712 395.236 72.872C394.98 73.032 394.852 73.256 394.852 73.544C394.852 74.184 395.564 74.504 396.988 74.504ZM420.192 64.976V68.048H413.448V77H409.968V64.976H420.192ZM429.174 77.288C427.67 77.288 426.366 77.048 425.262 76.568C424.158 76.072 423.31 75.368 422.718 74.456C422.126 73.528 421.83 72.44 421.83 71.192V70.88C421.83 69.6 422.118 68.496 422.694 67.568C423.286 66.64 424.134 65.928 425.238 65.432C426.342 64.936 427.654 64.688 429.174 64.688C430.678 64.688 431.974 64.936 433.062 65.432C434.15 65.928 434.982 66.64 435.558 67.568C436.15 68.496 436.446 69.6 436.446 70.88V71.192C436.446 72.44 436.15 73.528 435.558 74.456C434.982 75.368 434.15 76.072 433.062 76.568C431.974 77.048 430.678 77.288 429.174 77.288ZM429.15 74.12C430.318 74.12 431.222 73.864 431.862 73.352C432.518 72.84 432.846 72.112 432.846 71.168V70.904C432.846 69.928 432.526 69.176 431.886 68.648C431.246 68.12 430.334 67.856 429.15 67.856C427.95 67.856 427.03 68.12 426.39 68.648C425.75 69.16 425.43 69.912 425.43 70.904V71.168C425.43 72.112 425.75 72.84 426.39 73.352C427.046 73.864 427.966 74.12 429.15 74.12ZM447.451 64.688C448.859 64.688 450.091 64.944 451.147 65.456C452.203 65.952 453.011 66.672 453.571 67.616C454.147 68.544 454.435 69.624 454.435 70.856V71.096C454.435 72.328 454.147 73.416 453.571 74.36C452.995 75.288 452.179 76.008 451.123 76.52C450.083 77.032 448.859 77.288 447.451 77.288C445.915 77.288 444.611 76.896 443.539 76.112V81.08H440.059V64.976H443.299L443.395 66.008C444.531 65.128 445.883 64.688 447.451 64.688ZM450.835 70.856C450.835 69.912 450.507 69.176 449.851 68.648C449.195 68.12 448.283 67.856 447.115 67.856C446.347 67.856 445.643 67.976 445.003 68.216C444.379 68.44 443.891 68.76 443.539 69.176V72.776C443.907 73.192 444.403 73.52 445.027 73.76C445.667 74 446.363 74.12 447.115 74.12C448.283 74.12 449.195 73.856 449.851 73.328C450.507 72.8 450.835 72.056 450.835 71.096V70.856ZM473.323 73.952V77H471.283C470.547 77 469.907 76.88 469.363 76.64C468.835 76.384 468.435 76.024 468.163 75.56C466.947 76.712 465.219 77.288 462.979 77.288C461.283 77.288 459.963 76.968 459.019 76.328C458.075 75.688 457.603 74.792 457.603 73.64C457.603 72.664 457.955 71.888 458.659 71.312C459.363 70.72 460.387 70.352 461.731 70.208L467.659 69.56C467.467 68.376 466.395 67.784 464.443 67.784C463.419 67.784 462.619 67.928 462.043 68.216C461.483 68.488 461.203 68.872 461.203 69.368V69.44H457.699V69.368C457.699 68.424 457.971 67.6 458.515 66.896C459.075 66.192 459.867 65.648 460.891 65.264C461.915 64.88 463.107 64.688 464.467 64.688C466.579 64.688 468.219 65.16 469.387 66.104C470.571 67.048 471.163 68.352 471.163 70.016V72.992C471.163 73.632 471.531 73.952 472.267 73.952H473.323ZM463.219 74.504C464.243 74.504 465.147 74.352 465.931 74.048C466.731 73.728 467.315 73.304 467.683 72.776V71.96L462.643 72.536C462.115 72.6 461.723 72.712 461.467 72.872C461.211 73.032 461.083 73.256 461.083 73.544C461.083 74.184 461.795 74.504 463.219 74.504ZM474.079 68.096V64.976H487.951V68.096H482.791V77H479.287V68.096H474.079ZM504.005 72.008H493.301C493.413 72.76 493.781 73.336 494.405 73.736C495.029 74.136 495.869 74.336 496.925 74.336C497.885 74.336 498.669 74.208 499.277 73.952C499.885 73.696 500.237 73.344 500.333 72.896H503.981C503.805 74.304 503.101 75.392 501.869 76.16C500.653 76.912 499.005 77.288 496.925 77.288C495.453 77.288 494.173 77.048 493.085 76.568C491.997 76.072 491.165 75.368 490.589 74.456C490.013 73.544 489.725 72.472 489.725 71.24V70.784C489.725 69.536 490.013 68.456 490.589 67.544C491.181 66.616 492.013 65.912 493.085 65.432C494.173 64.936 495.453 64.688 496.925 64.688C499.165 64.688 500.901 65.224 502.133 66.296C503.381 67.352 504.005 68.84 504.005 70.76V72.008ZM496.901 67.592C495.973 67.592 495.205 67.76 494.597 68.096C493.989 68.432 493.589 68.904 493.397 69.512H500.333C500.141 68.904 499.749 68.432 499.157 68.096C498.565 67.76 497.813 67.592 496.901 67.592ZM520.999 77H517.519V68.048H511.879L511.783 71.192C511.655 75.064 510.143 77 507.247 77H505.831V73.904H506.431C507.135 73.904 507.647 73.68 507.967 73.232C508.303 72.768 508.479 72.016 508.495 70.976L508.663 64.976H520.999V77ZM534.485 67.976C536.085 67.976 537.341 68.368 538.253 69.152C539.181 69.936 539.645 71.008 539.645 72.368V72.632C539.645 73.976 539.181 75.04 538.253 75.824C537.325 76.592 536.069 76.976 534.485 76.976H525.461V64.976H528.941V67.976H534.485ZM536.093 72.368C536.093 71.904 535.933 71.552 535.613 71.312C535.309 71.056 534.853 70.928 534.245 70.928H528.941V74.024H534.245C534.837 74.024 535.293 73.904 535.613 73.664C535.933 73.424 536.093 73.08 536.093 72.632V72.368ZM546.8 64.976V69.44H553.568V64.976H557.048V77H553.568V72.488H546.8V77H543.32V64.976H546.8ZM568.01 77.288C566.506 77.288 565.202 77.048 564.098 76.568C562.994 76.072 562.146 75.368 561.554 74.456C560.962 73.528 560.666 72.44 560.666 71.192V70.88C560.666 69.6 560.954 68.496 561.53 67.568C562.122 66.64 562.97 65.928 564.074 65.432C565.178 64.936 566.49 64.688 568.01 64.688C569.514 64.688 570.81 64.936 571.898 65.432C572.986 65.928 573.818 66.64 574.394 67.568C574.986 68.496 575.282 69.6 575.282 70.88V71.192C575.282 72.44 574.986 73.528 574.394 74.456C573.818 75.368 572.986 76.072 571.898 76.568C570.81 77.048 569.514 77.288 568.01 77.288ZM567.986 74.12C569.154 74.12 570.058 73.864 570.698 73.352C571.354 72.84 571.682 72.112 571.682 71.168V70.904C571.682 69.928 571.362 69.176 570.722 68.648C570.082 68.12 569.17 67.856 567.986 67.856C566.786 67.856 565.866 68.12 565.226 68.648C564.586 69.16 564.266 69.912 564.266 70.904V71.168C564.266 72.112 564.586 72.84 565.226 73.352C565.882 73.864 566.802 74.12 567.986 74.12ZM582.232 64.976V72.776L589.36 64.976H592.504V77H589.168V69.2L582.04 77H578.896V64.976H582.232ZM585.712 63.656C583.968 63.656 582.656 63.336 581.776 62.696C580.896 62.04 580.456 61.08 580.456 59.816V59.624H583.48V59.816C583.48 60.168 583.672 60.44 584.056 60.632C584.44 60.824 584.992 60.92 585.712 60.92C586.368 60.92 586.872 60.824 587.224 60.632C587.592 60.44 587.776 60.168 587.776 59.816V59.624H590.968V59.816C590.968 62.376 589.216 63.656 585.712 63.656ZM91.032 104.496V105H87.144L83.016 100.44H80.232V105H76.752V92.976H80.232V97.44H82.872L86.808 92.976H90.768V93.48L86.016 98.856L91.032 104.496ZM99.7551 105.288C98.2511 105.288 96.9471 105.048 95.8431 104.568C94.7391 104.072 93.8911 103.368 93.2991 102.456C92.7071 101.528 92.4111 100.44 92.4111 99.192V98.88C92.4111 97.6 92.6991 96.496 93.2751 95.568C93.8671 94.64 94.7151 93.928 95.8191 93.432C96.9231 92.936 98.2351 92.688 99.7551 92.688C101.259 92.688 102.555 92.936 103.643 93.432C104.731 93.928 105.563 94.64 106.139 95.568C106.731 96.496 107.027 97.6 107.027 98.88V99.192C107.027 100.44 106.731 101.528 106.139 102.456C105.563 103.368 104.731 104.072 103.643 104.568C102.555 105.048 101.259 105.288 99.7551 105.288ZM99.7311 102.12C100.899 102.12 101.803 101.864 102.443 101.352C103.099 100.84 103.427 100.112 103.427 99.168V98.904C103.427 97.928 103.107 97.176 102.467 96.648C101.827 96.12 100.915 95.856 99.7311 95.856C98.5311 95.856 97.6111 96.12 96.9711 96.648C96.3311 97.16 96.0111 97.912 96.0111 98.904V99.168C96.0111 100.112 96.3311 100.84 96.9711 101.352C97.6271 101.864 98.5471 102.12 99.7311 102.12ZM129.049 92.976V105H125.689V96.504L125.089 97.848L121.393 105H118.297L114.625 97.848L114.001 96.48V97.944L114.025 105H110.641V92.976H115.585L119.857 101.424L124.105 92.976H129.049ZM136.995 92.976V97.44H143.763V92.976H147.243V105H143.763V100.488H136.995V105H133.515V92.976H136.995ZM166.637 101.952V105H164.597C163.861 105 163.221 104.88 162.677 104.64C162.149 104.384 161.749 104.024 161.477 103.56C160.261 104.712 158.533 105.288 156.293 105.288C154.597 105.288 153.277 104.968 152.333 104.328C151.389 103.688 150.917 102.792 150.917 101.64C150.917 100.664 151.269 99.888 151.973 99.312C152.677 98.72 153.701 98.352 155.045 98.208L160.973 97.56C160.781 96.376 159.709 95.784 157.757 95.784C156.733 95.784 155.933 95.928 155.357 96.216C154.797 96.488 154.517 96.872 154.517 97.368V97.44H151.013V97.368C151.013 96.424 151.285 95.6 151.829 94.896C152.389 94.192 153.181 93.648 154.205 93.264C155.229 92.88 156.421 92.688 157.781 92.688C159.893 92.688 161.533 93.16 162.701 94.104C163.885 95.048 164.477 96.352 164.477 98.016V100.992C164.477 101.632 164.845 101.952 165.581 101.952H166.637ZM156.533 102.504C157.557 102.504 158.461 102.352 159.245 102.048C160.045 101.728 160.629 101.304 160.997 100.776V99.96L155.957 100.536C155.429 100.6 155.037 100.712 154.781 100.872C154.525 101.032 154.397 101.256 154.397 101.544C154.397 102.184 155.109 102.504 156.533 102.504ZM167.394 96.096V92.976H181.266V96.096H176.106V105H172.602V96.096H167.394ZM197.319 100.008H186.615C186.727 100.76 187.095 101.336 187.719 101.736C188.343 102.136 189.183 102.336 190.239 102.336C191.199 102.336 191.983 102.208 192.591 101.952C193.199 101.696 193.551 101.344 193.647 100.896H197.295C197.119 102.304 196.415 103.392 195.183 104.16C193.967 104.912 192.319 105.288 190.239 105.288C188.767 105.288 187.487 105.048 186.399 104.568C185.311 104.072 184.479 103.368 183.903 102.456C183.327 101.544 183.039 100.472 183.039 99.24V98.784C183.039 97.536 183.327 96.456 183.903 95.544C184.495 94.616 185.327 93.912 186.399 93.432C187.487 92.936 188.767 92.688 190.239 92.688C192.479 92.688 194.215 93.224 195.447 94.296C196.695 95.352 197.319 96.84 197.319 98.76V100.008ZM190.215 95.592C189.287 95.592 188.519 95.76 187.911 96.096C187.303 96.432 186.903 96.904 186.711 97.512H193.647C193.455 96.904 193.063 96.432 192.471 96.096C191.879 95.76 191.127 95.592 190.215 95.592ZM205.11 101.448V101.952L202.758 108.432H199.542L201.246 101.448H205.11ZM231.519 98.904C232.111 99.176 232.559 99.536 232.863 99.984C233.183 100.416 233.343 100.904 233.343 101.448V101.616C233.343 102.816 232.751 103.728 231.567 104.352C230.399 104.976 228.687 105.288 226.431 105.288C223.919 105.288 222.063 104.864 220.863 104.016C219.663 103.152 219.063 101.824 219.063 100.032V99.888H222.423V100.032C222.423 100.88 222.743 101.504 223.383 101.904C224.023 102.288 225.047 102.48 226.455 102.48C227.527 102.48 228.335 102.384 228.879 102.192C229.439 101.984 229.719 101.696 229.719 101.328V101.184C229.719 100.864 229.567 100.632 229.263 100.488C228.959 100.344 228.479 100.272 227.823 100.272H224.247V97.632H227.583C228.223 97.632 228.687 97.56 228.975 97.416C229.279 97.272 229.431 97.04 229.431 96.72V96.576C229.431 96.224 229.151 95.96 228.591 95.784C228.031 95.608 227.215 95.52 226.143 95.52C224.815 95.52 223.863 95.712 223.287 96.096C222.711 96.464 222.423 97.088 222.423 97.968V98.112H219.063V97.968C219.063 94.448 221.479 92.688 226.311 92.688C228.439 92.688 230.087 93.008 231.255 93.648C232.423 94.288 233.007 95.2 233.007 96.384V96.552C233.007 97.528 232.511 98.312 231.519 98.904ZM252.718 101.952V108.072H249.238V105H238.51V108.072H235.03V101.952H236.902C237.254 101.392 237.518 100.784 237.694 100.128C237.87 99.472 237.966 98.704 237.982 97.824L238.078 92.976H250.438V101.952H252.718ZM246.958 101.952V96.048H241.246L241.198 97.848C241.166 98.776 241.078 99.56 240.934 100.2C240.79 100.84 240.566 101.424 240.262 101.952H246.958ZM268.682 100.008H257.978C258.09 100.76 258.458 101.336 259.082 101.736C259.706 102.136 260.546 102.336 261.602 102.336C262.562 102.336 263.346 102.208 263.954 101.952C264.562 101.696 264.914 101.344 265.01 100.896H268.658C268.482 102.304 267.778 103.392 266.546 104.16C265.33 104.912 263.682 105.288 261.602 105.288C260.13 105.288 258.85 105.048 257.762 104.568C256.674 104.072 255.842 103.368 255.266 102.456C254.69 101.544 254.402 100.472 254.402 99.24V98.784C254.402 97.536 254.69 96.456 255.266 95.544C255.858 94.616 256.69 93.912 257.762 93.432C258.85 92.936 260.13 92.688 261.602 92.688C263.842 92.688 265.578 93.224 266.81 94.296C268.058 95.352 268.682 96.84 268.682 98.76V100.008ZM261.578 95.592C260.65 95.592 259.882 95.76 259.274 96.096C258.666 96.432 258.266 96.904 258.074 97.512H265.01C264.818 96.904 264.426 96.432 263.834 96.096C263.242 95.76 262.49 95.592 261.578 95.592ZM278.711 105.288C277.239 105.288 275.951 105.04 274.847 104.544C273.759 104.048 272.919 103.344 272.327 102.432C271.751 101.52 271.463 100.44 271.463 99.192V98.88C271.463 97.616 271.751 96.52 272.327 95.592C272.919 94.664 273.759 93.952 274.847 93.456C275.951 92.944 277.239 92.688 278.711 92.688C280.071 92.688 281.287 92.92 282.359 93.384C283.447 93.832 284.287 94.464 284.879 95.28C285.487 96.08 285.791 97 285.791 98.04V98.136H282.215V98.04C282.215 97.4 281.887 96.88 281.231 96.48C280.591 96.064 279.751 95.856 278.711 95.856C277.527 95.856 276.623 96.12 275.999 96.648C275.375 97.16 275.063 97.912 275.063 98.904V99.168C275.063 100.128 275.375 100.864 275.999 101.376C276.623 101.872 277.527 102.12 278.711 102.12C279.767 102.12 280.615 101.928 281.255 101.544C281.895 101.144 282.215 100.616 282.215 99.96V99.864H285.791V99.96C285.791 101.016 285.495 101.952 284.903 102.768C284.327 103.568 283.503 104.192 282.431 104.64C281.375 105.072 280.135 105.288 278.711 105.288ZM298.365 95.976C299.965 95.976 301.221 96.368 302.133 97.152C303.061 97.936 303.525 99.008 303.525 100.368V100.632C303.525 101.976 303.061 103.04 302.133 103.824C301.205 104.592 299.949 104.976 298.365 104.976H289.341V92.976H292.821V95.976H298.365ZM299.973 100.368C299.973 99.904 299.813 99.552 299.493 99.312C299.189 99.056 298.733 98.928 298.125 98.928H292.821V102.024H298.125C298.717 102.024 299.173 101.904 299.493 101.664C299.813 101.424 299.973 101.08 299.973 100.632V100.368ZM321.105 92.976V100.776L328.233 92.976H331.377V105H328.041V97.2L320.913 105H317.769V92.976H321.105ZM359.896 92.976V105H356.416V96.048H349.888V105H346.408V92.976H359.896ZM371.752 92.688C373.16 92.688 374.392 92.944 375.448 93.456C376.504 93.952 377.312 94.672 377.872 95.616C378.448 96.544 378.736 97.624 378.736 98.856V99.096C378.736 100.328 378.448 101.416 377.872 102.36C377.296 103.288 376.48 104.008 375.424 104.52C374.384 105.032 373.16 105.288 371.752 105.288C370.216 105.288 368.912 104.896 367.84 104.112V109.08H364.36V92.976H367.6L367.696 94.008C368.832 93.128 370.184 92.688 371.752 92.688ZM375.136 98.856C375.136 97.912 374.808 97.176 374.152 96.648C373.496 96.12 372.584 95.856 371.416 95.856C370.648 95.856 369.944 95.976 369.304 96.216C368.68 96.44 368.192 96.76 367.84 97.176V100.776C368.208 101.192 368.704 101.52 369.328 101.76C369.968 102 370.664 102.12 371.416 102.12C372.584 102.12 373.496 101.856 374.152 101.328C374.808 100.8 375.136 100.056 375.136 99.096V98.856ZM388.863 105.288C387.359 105.288 386.055 105.048 384.951 104.568C383.847 104.072 382.999 103.368 382.407 102.456C381.815 101.528 381.519 100.44 381.519 99.192V98.88C381.519 97.6 381.807 96.496 382.383 95.568C382.975 94.64 383.823 93.928 384.927 93.432C386.031 92.936 387.343 92.688 388.863 92.688C390.367 92.688 391.663 92.936 392.751 93.432C393.839 93.928 394.671 94.64 395.247 95.568C395.839 96.496 396.135 97.6 396.135 98.88V99.192C396.135 100.44 395.839 101.528 395.247 102.456C394.671 103.368 393.839 104.072 392.751 104.568C391.663 105.048 390.367 105.288 388.863 105.288ZM388.839 102.12C390.007 102.12 390.911 101.864 391.551 101.352C392.207 100.84 392.535 100.112 392.535 99.168V98.904C392.535 97.928 392.215 97.176 391.575 96.648C390.935 96.12 390.023 95.856 388.839 95.856C387.639 95.856 386.719 96.12 386.079 96.648C385.439 97.16 385.119 97.912 385.119 98.904V99.168C385.119 100.112 385.439 100.84 386.079 101.352C386.735 101.864 387.655 102.12 388.839 102.12ZM403.085 92.976V100.776L410.213 92.976H413.357V105H410.021V97.2L402.893 105H399.749V92.976H403.085ZM424.226 105.288C422.754 105.288 421.466 105.04 420.362 104.544C419.274 104.048 418.434 103.344 417.842 102.432C417.266 101.52 416.978 100.44 416.978 99.192V98.88C416.978 97.616 417.266 96.52 417.842 95.592C418.434 94.664 419.274 93.952 420.362 93.456C421.466 92.944 422.754 92.688 424.226 92.688C425.586 92.688 426.802 92.92 427.874 93.384C428.962 93.832 429.802 94.464 430.394 95.28C431.002 96.08 431.306 97 431.306 98.04V98.136H427.73V98.04C427.73 97.4 427.402 96.88 426.746 96.48C426.106 96.064 425.266 95.856 424.226 95.856C423.042 95.856 422.138 96.12 421.514 96.648C420.89 97.16 420.578 97.912 420.578 98.904V99.168C420.578 100.128 420.89 100.864 421.514 101.376C422.138 101.872 423.042 102.12 424.226 102.12C425.282 102.12 426.13 101.928 426.77 101.544C427.41 101.144 427.73 100.616 427.73 99.96V99.864H431.306V99.96C431.306 101.016 431.01 101.952 430.418 102.768C429.842 103.568 429.018 104.192 427.946 104.64C426.89 105.072 425.65 105.288 424.226 105.288ZM447.455 104.52V105H443.399L440.039 101.136L436.679 105H432.623V104.52L437.687 98.952L432.719 93.48V92.976H436.751L440.039 96.768L443.375 92.976H447.311V93.48L442.367 98.952L447.455 104.52ZM456.195 105.288C454.691 105.288 453.387 105.048 452.283 104.568C451.179 104.072 450.331 103.368 449.739 102.456C449.147 101.528 448.851 100.44 448.851 99.192V98.88C448.851 97.6 449.139 96.496 449.715 95.568C450.307 94.64 451.155 93.928 452.259 93.432C453.363 92.936 454.675 92.688 456.195 92.688C457.699 92.688 458.995 92.936 460.083 93.432C461.171 93.928 462.003 94.64 462.579 95.568C463.171 96.496 463.467 97.6 463.467 98.88V99.192C463.467 100.44 463.171 101.528 462.579 102.456C462.003 103.368 461.171 104.072 460.083 104.568C458.995 105.048 457.699 105.288 456.195 105.288ZM456.171 102.12C457.339 102.12 458.243 101.864 458.883 101.352C459.539 100.84 459.867 100.112 459.867 99.168V98.904C459.867 97.928 459.547 97.176 458.907 96.648C458.267 96.12 457.355 95.856 456.171 95.856C454.971 95.856 454.051 96.12 453.411 96.648C452.771 97.16 452.451 97.912 452.451 98.904V99.168C452.451 100.112 452.771 100.84 453.411 101.352C454.067 101.864 454.987 102.12 456.171 102.12ZM482.65 101.952V108.072H479.17V105H468.442V108.072H464.962V101.952H466.834C467.186 101.392 467.45 100.784 467.626 100.128C467.802 99.472 467.898 98.704 467.914 97.824L468.01 92.976H480.37V101.952H482.65ZM476.89 101.952V96.048H471.178L471.13 97.848C471.098 98.776 471.01 99.56 470.866 100.2C470.722 100.84 470.498 101.424 470.194 101.952H476.89ZM488.955 92.976V100.776L496.083 92.976H499.227V105H495.891V97.2L488.763 105H485.619V92.976H488.955ZM501.569 96.096V92.976H515.441V96.096H510.281V105H506.777V96.096H501.569ZM540.33 98.88C541.498 99.392 542.082 100.224 542.082 101.376V101.616C542.082 102.704 541.65 103.544 540.786 104.136C539.922 104.712 538.682 105 537.066 105H527.898V92.976H536.706C538.322 92.976 539.57 93.264 540.45 93.84C541.33 94.416 541.77 95.24 541.77 96.312V96.552C541.77 97.592 541.29 98.368 540.33 98.88ZM531.378 95.52V97.728H536.466C537.026 97.728 537.45 97.64 537.738 97.464C538.026 97.288 538.17 97.04 538.17 96.72V96.48C538.17 95.84 537.602 95.52 536.466 95.52H531.378ZM538.506 101.184C538.506 100.864 538.354 100.616 538.05 100.44C537.762 100.264 537.346 100.176 536.802 100.176H531.378V102.456H536.802C537.938 102.456 538.506 102.112 538.506 101.424V101.184ZM552.305 105.288C550.833 105.288 549.545 105.04 548.441 104.544C547.353 104.048 546.513 103.344 545.921 102.432C545.345 101.52 545.057 100.44 545.057 99.192V98.88C545.057 97.616 545.345 96.52 545.921 95.592C546.513 94.664 547.353 93.952 548.441 93.456C549.545 92.944 550.833 92.688 552.305 92.688C553.665 92.688 554.881 92.92 555.953 93.384C557.041 93.832 557.881 94.464 558.473 95.28C559.081 96.08 559.385 97 559.385 98.04V98.136H555.809V98.04C555.809 97.4 555.481 96.88 554.825 96.48C554.185 96.064 553.345 95.856 552.305 95.856C551.121 95.856 550.217 96.12 549.593 96.648C548.969 97.16 548.657 97.912 548.657 98.904V99.168C548.657 100.128 548.969 100.864 549.593 101.376C550.217 101.872 551.121 102.12 552.305 102.12C553.361 102.12 554.209 101.928 554.849 101.544C555.489 101.144 555.809 100.616 555.809 99.96V99.864H559.385V99.96C559.385 101.016 559.089 101.952 558.497 102.768C557.921 103.568 557.097 104.192 556.025 104.64C554.969 105.072 553.729 105.288 552.305 105.288ZM576.591 104.976H573.111V101.376H571.023L566.775 105H562.479V104.568L566.391 101.304C565.143 101.128 564.167 100.704 563.463 100.032C562.759 99.36 562.407 98.496 562.407 97.44V97.152C562.407 95.872 562.871 94.856 563.799 94.104C564.727 93.352 565.999 92.976 567.615 92.976H576.591V104.976ZM573.111 98.76V95.808H567.879C567.255 95.808 566.783 95.928 566.463 96.168C566.143 96.392 565.983 96.72 565.983 97.152V97.44C565.983 97.872 566.143 98.2 566.463 98.424C566.799 98.648 567.271 98.76 567.879 98.76H573.111ZM95.16 120.976V133H91.8V124.504L91.2 125.848L87.504 133H84.408L80.736 125.848L80.112 124.48V125.944L80.136 133H76.752V120.976H81.696L85.968 129.424L90.216 120.976H95.16ZM114.562 129.952V133H112.522C111.786 133 111.146 132.88 110.602 132.64C110.074 132.384 109.674 132.024 109.402 131.56C108.186 132.712 106.458 133.288 104.218 133.288C102.522 133.288 101.202 132.968 100.258 132.328C99.3139 131.688 98.8419 130.792 98.8419 129.64C98.8419 128.664 99.1939 127.888 99.8979 127.312C100.602 126.72 101.626 126.352 102.97 126.208L108.898 125.56C108.706 124.376 107.634 123.784 105.682 123.784C104.658 123.784 103.858 123.928 103.282 124.216C102.722 124.488 102.442 124.872 102.442 125.368V125.44H98.9379V125.368C98.9379 124.424 99.2099 123.6 99.7539 122.896C100.314 122.192 101.106 121.648 102.13 121.264C103.154 120.88 104.346 120.688 105.706 120.688C107.818 120.688 109.458 121.16 110.626 122.104C111.81 123.048 112.402 124.352 112.402 126.016V128.992C112.402 129.632 112.77 129.952 113.506 129.952H114.562ZM104.458 130.504C105.482 130.504 106.386 130.352 107.17 130.048C107.97 129.728 108.554 129.304 108.922 128.776V127.96L103.882 128.536C103.354 128.6 102.962 128.712 102.706 128.872C102.45 129.032 102.322 129.256 102.322 129.544C102.322 130.184 103.034 130.504 104.458 130.504ZM127.662 120.976V124.048H120.918V133H117.438V120.976H127.662ZM134.038 120.976V128.776L141.166 120.976H144.31V133H140.974V125.2L133.846 133H130.702V120.976H134.038ZM162.1 132.976H158.62V129.376H156.532L152.284 133H147.988V132.568L151.9 129.304C150.652 129.128 149.676 128.704 148.972 128.032C148.268 127.36 147.916 126.496 147.916 125.44V125.152C147.916 123.872 148.38 122.856 149.308 122.104C150.236 121.352 151.508 120.976 153.124 120.976H162.1V132.976ZM158.62 126.76V123.808H153.388C152.764 123.808 152.292 123.928 151.972 124.168C151.652 124.392 151.492 124.72 151.492 125.152V125.44C151.492 125.872 151.652 126.2 151.972 126.424C152.308 126.648 152.78 126.76 153.388 126.76H158.62ZM170.856 117.256L170.664 127.912H167.424L167.208 117.256H170.856ZM169.032 133.288C168.424 133.288 167.92 133.104 167.52 132.736C167.136 132.352 166.944 131.864 166.944 131.272C166.944 130.68 167.136 130.2 167.52 129.832C167.92 129.448 168.424 129.256 169.032 129.256C169.64 129.256 170.136 129.448 170.52 129.832C170.92 130.2 171.12 130.68 171.12 131.272C171.12 131.864 170.92 132.352 170.52 132.736C170.136 133.104 169.64 133.288 169.032 133.288Z" fill="black" fill-opacity="0.8"/>
</svg>
