<svg width="302" height="240" viewBox="0 0 302 240" fill="none" xmlns="http://www.w3.org/2000/svg">
<path d="M0 239.061V148.561L302 0.0605469V87.5605L0 239.061Z" fill="white"/>
<path d="M40.0695 194.313V195.122L40.793 194.76L67.9914 181.168V194.004L40.3458 207.834L40.3457 207.834L27.1161 214.456V145.777L40.7932 138.931L40.7933 138.931L67.9914 125.325V138.175L54.3148 145.021L54.3142 145.021L40.3463 151.99L40.0695 152.128V152.437V194.313Z" stroke="black"/>
<path d="M207.474 55.8802L207.474 55.88L234.688 42.2586V83.0459L207.027 96.8914L206.75 97.0296V97.3385V124.966L193.767 131.451V62.7264L207.474 55.8802ZM221.443 76.8329L221.719 76.6947V76.3857V62.4172V61.6082L220.995 61.97L207.027 68.9542L206.75 69.0924V69.4015V83.37V84.179L207.474 83.8172L221.443 76.8329Z" stroke="black"/>
<path d="M273.48 97.3327L259.312 104.41V44.5767V43.7676L258.589 44.1294L244.16 51.3441V37.3093L288.648 15.0649V29.1147L273.757 36.553L273.48 36.6911V37.0003V97.3327Z" stroke="black"/>
<path d="M111.309 177.711L97.1561 184.788V124.955V124.146L96.4327 124.508L81.9881 131.723V117.673L126.477 95.4282V109.478L111.585 116.916L111.309 117.054V117.364V177.711Z" stroke="black"/>
<path d="M180.696 69.6953V138.663L167.682 145.177V117.944V117.134L166.958 117.496L152.944 124.511L152.668 124.649V124.958V152.677L139.654 159.192V90.2243L153.392 83.3479L167.406 76.3335L167.406 76.3333L180.696 69.6953ZM167.406 104.377L167.682 104.239V103.929V89.9154V89.1068L166.959 89.4681L152.945 96.4675L152.668 96.6057V96.9149V110.929V111.738L153.392 111.376L167.406 104.377Z" stroke="black"/>
</svg>
