<svg width="673" height="198" viewBox="0 0 673 198" fill="none" xmlns="http://www.w3.org/2000/svg">
<rect x="0.5" y="0.5" width="671.936" height="196.742" fill="white" stroke="black"/>
<line x1="616.13" y1="28.9746" x2="643.472" y2="56.3167" stroke="black"/>
<line y1="-0.5" x2="38.6676" y2="-0.5" transform="matrix(-0.707107 0.707107 0.707107 0.707107 643.119 29.3281)" stroke="black"/>
<path d="M90.336 68.936C91.072 69.272 91.632 69.728 92.016 70.304C92.4 70.88 92.592 71.552 92.592 72.32V72.584C92.592 73.944 92.064 75.024 91.008 75.824C89.952 76.608 88.52 77 86.712 77H76.872V61.256H86.256C88.112 61.256 89.544 61.624 90.552 62.36C91.576 63.08 92.088 64.096 92.088 65.408V65.672C92.088 67.08 91.504 68.168 90.336 68.936ZM80.472 64.4V67.568H86.232C87.72 67.568 88.464 67.08 88.464 66.104V65.864C88.464 65.384 88.272 65.024 87.888 64.784C87.52 64.528 86.976 64.4 86.256 64.4H80.472ZM88.92 72.056C88.92 71.064 88.168 70.568 86.664 70.568H80.472V73.856H86.664C87.384 73.856 87.936 73.72 88.32 73.448C88.72 73.176 88.92 72.792 88.92 72.296V72.056ZM111.82 73.952V77H109.78C109.044 77 108.404 76.88 107.86 76.64C107.332 76.384 106.932 76.024 106.66 75.56C105.444 76.712 103.716 77.288 101.476 77.288C99.7797 77.288 98.4597 76.968 97.5157 76.328C96.5717 75.688 96.0997 74.792 96.0997 73.64C96.0997 72.664 96.4517 71.888 97.1557 71.312C97.8597 70.72 98.8837 70.352 100.228 70.208L106.156 69.56C105.964 68.376 104.892 67.784 102.94 67.784C101.916 67.784 101.116 67.928 100.54 68.216C99.9797 68.488 99.6997 68.872 99.6997 69.368V69.44H96.1957V69.368C96.1957 68.424 96.4677 67.6 97.0117 66.896C97.5717 66.192 98.3637 65.648 99.3877 65.264C100.412 64.88 101.604 64.688 102.964 64.688C105.076 64.688 106.716 65.16 107.884 66.104C109.068 67.048 109.66 68.352 109.66 70.016V72.992C109.66 73.632 110.028 73.952 110.764 73.952H111.82ZM101.716 74.504C102.74 74.504 103.644 74.352 104.428 74.048C105.228 73.728 105.812 73.304 106.18 72.776V71.96L101.14 72.536C100.612 72.6 100.22 72.712 99.9637 72.872C99.7077 73.032 99.5797 73.256 99.5797 73.544C99.5797 74.184 100.292 74.504 101.716 74.504ZM133.103 64.976V77H129.743V68.504L129.143 69.848L125.447 77H122.351L118.679 69.848L118.055 68.48V69.944L118.079 77H114.695V64.976H119.639L123.911 73.424L128.159 64.976H133.103ZM161.627 64.976V77H158.147V68.048H151.619V77H148.139V64.976H161.627ZM172.595 77.288C171.091 77.288 169.787 77.048 168.683 76.568C167.579 76.072 166.731 75.368 166.139 74.456C165.547 73.528 165.251 72.44 165.251 71.192V70.88C165.251 69.6 165.539 68.496 166.115 67.568C166.707 66.64 167.555 65.928 168.659 65.432C169.763 64.936 171.075 64.688 172.595 64.688C174.099 64.688 175.395 64.936 176.483 65.432C177.571 65.928 178.403 66.64 178.979 67.568C179.571 68.496 179.867 69.6 179.867 70.88V71.192C179.867 72.44 179.571 73.528 178.979 74.456C178.403 75.368 177.571 76.072 176.483 76.568C175.395 77.048 174.099 77.288 172.595 77.288ZM172.571 74.12C173.739 74.12 174.643 73.864 175.283 73.352C175.939 72.84 176.267 72.112 176.267 71.168V70.904C176.267 69.928 175.947 69.176 175.307 68.648C174.667 68.12 173.755 67.856 172.571 67.856C171.371 67.856 170.451 68.12 169.811 68.648C169.171 69.16 168.851 69.912 168.851 70.904V71.168C168.851 72.112 169.171 72.84 169.811 73.352C170.467 73.864 171.387 74.12 172.571 74.12ZM195.913 70.88C197.081 71.392 197.665 72.224 197.665 73.376V73.616C197.665 74.704 197.233 75.544 196.369 76.136C195.505 76.712 194.265 77 192.649 77H183.481V64.976H192.289C193.905 64.976 195.153 65.264 196.033 65.84C196.913 66.416 197.353 67.24 197.353 68.312V68.552C197.353 69.592 196.873 70.368 195.913 70.88ZM186.961 67.52V69.728H192.049C192.609 69.728 193.033 69.64 193.321 69.464C193.609 69.288 193.753 69.04 193.753 68.72V68.48C193.753 67.84 193.185 67.52 192.049 67.52H186.961ZM194.089 73.184C194.089 72.864 193.937 72.616 193.633 72.44C193.345 72.264 192.929 72.176 192.385 72.176H186.961V74.456H192.385C193.521 74.456 194.089 74.112 194.089 73.424V73.184ZM214.92 72.008H204.216C204.328 72.76 204.696 73.336 205.32 73.736C205.944 74.136 206.784 74.336 207.84 74.336C208.8 74.336 209.584 74.208 210.192 73.952C210.8 73.696 211.152 73.344 211.248 72.896H214.896C214.72 74.304 214.016 75.392 212.784 76.16C211.568 76.912 209.92 77.288 207.84 77.288C206.368 77.288 205.088 77.048 204 76.568C202.912 76.072 202.08 75.368 201.504 74.456C200.928 73.544 200.64 72.472 200.64 71.24V70.784C200.64 69.536 200.928 68.456 201.504 67.544C202.096 66.616 202.928 65.912 204 65.432C205.088 64.936 206.368 64.688 207.84 64.688C210.08 64.688 211.816 65.224 213.048 66.296C214.296 67.352 214.92 68.84 214.92 70.76V72.008ZM207.816 67.592C206.888 67.592 206.12 67.76 205.512 68.096C204.904 68.432 204.504 68.904 204.312 69.512H211.248C211.056 68.904 210.664 68.432 210.072 68.096C209.48 67.76 208.728 67.592 207.816 67.592ZM230.277 70.904C230.869 71.176 231.317 71.536 231.621 71.984C231.941 72.416 232.101 72.904 232.101 73.448V73.616C232.101 74.816 231.509 75.728 230.325 76.352C229.157 76.976 227.445 77.288 225.189 77.288C222.677 77.288 220.821 76.864 219.621 76.016C218.421 75.152 217.821 73.824 217.821 72.032V71.888H221.181V72.032C221.181 72.88 221.501 73.504 222.141 73.904C222.781 74.288 223.805 74.48 225.213 74.48C226.285 74.48 227.093 74.384 227.637 74.192C228.197 73.984 228.477 73.696 228.477 73.328V73.184C228.477 72.864 228.325 72.632 228.021 72.488C227.717 72.344 227.237 72.272 226.581 72.272H223.005V69.632H226.341C226.981 69.632 227.445 69.56 227.733 69.416C228.037 69.272 228.189 69.04 228.189 68.72V68.576C228.189 68.224 227.909 67.96 227.349 67.784C226.789 67.608 225.973 67.52 224.901 67.52C223.573 67.52 222.621 67.712 222.045 68.096C221.469 68.464 221.181 69.088 221.181 69.968V70.112H217.821V69.968C217.821 66.448 220.237 64.688 225.069 64.688C227.197 64.688 228.845 65.008 230.013 65.648C231.181 66.288 231.765 67.2 231.765 68.384V68.552C231.765 69.528 231.269 70.312 230.277 70.904ZM249.281 77H245.801V68.048H240.161L240.065 71.192C239.937 75.064 238.425 77 235.529 77H234.113V73.904H234.713C235.417 73.904 235.929 73.68 236.249 73.232C236.585 72.768 236.761 72.016 236.777 70.976L236.945 64.976H249.281V77ZM260.247 77.288C258.743 77.288 257.439 77.048 256.335 76.568C255.231 76.072 254.383 75.368 253.791 74.456C253.199 73.528 252.903 72.44 252.903 71.192V70.88C252.903 69.6 253.191 68.496 253.767 67.568C254.359 66.64 255.207 65.928 256.311 65.432C257.415 64.936 258.727 64.688 260.247 64.688C261.751 64.688 263.047 64.936 264.135 65.432C265.223 65.928 266.055 66.64 266.631 67.568C267.223 68.496 267.519 69.6 267.519 70.88V71.192C267.519 72.44 267.223 73.528 266.631 74.456C266.055 75.368 265.223 76.072 264.135 76.568C263.047 77.048 261.751 77.288 260.247 77.288ZM260.223 74.12C261.391 74.12 262.295 73.864 262.935 73.352C263.591 72.84 263.919 72.112 263.919 71.168V70.904C263.919 69.928 263.599 69.176 262.959 68.648C262.319 68.12 261.407 67.856 260.223 67.856C259.023 67.856 258.103 68.12 257.463 68.648C256.823 69.16 256.503 69.912 256.503 70.904V71.168C256.503 72.112 256.823 72.84 257.463 73.352C258.119 73.864 259.039 74.12 260.223 74.12ZM275.428 61.256L275.236 71.912H271.996L271.78 61.256H275.428ZM273.604 77.288C272.996 77.288 272.492 77.104 272.092 76.736C271.708 76.352 271.516 75.864 271.516 75.272C271.516 74.68 271.708 74.2 272.092 73.832C272.492 73.448 272.996 73.256 273.604 73.256C274.212 73.256 274.708 73.448 275.092 73.832C275.492 74.2 275.692 74.68 275.692 75.272C275.692 75.864 275.492 76.352 275.092 76.736C274.708 77.104 274.212 77.288 273.604 77.288ZM304.683 68.936C305.419 69.272 305.979 69.728 306.363 70.304C306.747 70.88 306.939 71.552 306.939 72.32V72.584C306.939 73.944 306.411 75.024 305.355 75.824C304.299 76.608 302.867 77 301.059 77H291.219V61.256H300.603C302.459 61.256 303.891 61.624 304.899 62.36C305.923 63.08 306.435 64.096 306.435 65.408V65.672C306.435 67.08 305.851 68.168 304.683 68.936ZM294.819 64.4V67.568H300.579C302.067 67.568 302.811 67.08 302.811 66.104V65.864C302.811 65.384 302.619 65.024 302.235 64.784C301.867 64.528 301.323 64.4 300.603 64.4H294.819ZM303.267 72.056C303.267 71.064 302.515 70.568 301.011 70.568H294.819V73.856H301.011C301.731 73.856 302.283 73.72 302.667 73.448C303.067 73.176 303.267 72.792 303.267 72.296V72.056ZM319.207 67.976C320.823 67.976 322.087 68.376 322.999 69.176C323.927 69.96 324.391 71.032 324.391 72.392V72.656C324.391 73.984 323.927 75.04 322.999 75.824C322.087 76.608 320.823 77 319.207 77H310.855V64.976H314.311V67.976H319.207ZM329.095 64.976V77H325.639V64.976H329.095ZM320.815 72.368C320.815 71.904 320.655 71.544 320.335 71.288C320.031 71.032 319.575 70.904 318.967 70.904H314.311V74.072H318.967C319.575 74.072 320.031 73.952 320.335 73.712C320.655 73.456 320.815 73.104 320.815 72.656V72.368ZM347.569 64.976V69.44H354.337V64.976H357.817V77H354.337V72.488H347.569V77H344.089V64.976H347.569ZM377.211 73.952V77H375.171C374.435 77 373.795 76.88 373.251 76.64C372.723 76.384 372.323 76.024 372.051 75.56C370.835 76.712 369.107 77.288 366.867 77.288C365.171 77.288 363.851 76.968 362.907 76.328C361.963 75.688 361.491 74.792 361.491 73.64C361.491 72.664 361.843 71.888 362.547 71.312C363.251 70.72 364.275 70.352 365.619 70.208L371.547 69.56C371.355 68.376 370.283 67.784 368.331 67.784C367.307 67.784 366.507 67.928 365.931 68.216C365.371 68.488 365.091 68.872 365.091 69.368V69.44H361.587V69.368C361.587 68.424 361.859 67.6 362.403 66.896C362.963 66.192 363.755 65.648 364.779 65.264C365.803 64.88 366.995 64.688 368.355 64.688C370.467 64.688 372.107 65.16 373.275 66.104C374.459 67.048 375.051 68.352 375.051 70.016V72.992C375.051 73.632 375.419 73.952 376.155 73.952H377.211ZM367.107 74.504C368.131 74.504 369.035 74.352 369.819 74.048C370.619 73.728 371.203 73.304 371.571 72.776V71.96L366.531 72.536C366.003 72.6 365.611 72.712 365.355 72.872C365.099 73.032 364.971 73.256 364.971 73.544C364.971 74.184 365.683 74.504 367.107 74.504ZM383.567 64.976V73.952H389.087V64.976H392.543V73.952H398.039V64.976H401.519V77H380.087V64.976H383.567ZM419.568 77H416.088V68.048H410.448L410.352 71.192C410.224 75.064 408.712 77 405.816 77H404.4V73.904H405C405.704 73.904 406.216 73.68 406.536 73.232C406.872 72.768 407.048 72.016 407.064 70.976L407.232 64.976H419.568V77ZM427.366 64.976V72.776L434.494 64.976H437.638V77H434.302V69.2L427.174 77H424.03V64.976H427.366ZM456.149 64.976V69.44H462.917V64.976H466.397V77H462.917V72.488H456.149V77H452.669V64.976H456.149ZM485.791 73.952V77H483.751C483.015 77 482.375 76.88 481.831 76.64C481.303 76.384 480.903 76.024 480.631 75.56C479.415 76.712 477.687 77.288 475.447 77.288C473.751 77.288 472.431 76.968 471.487 76.328C470.543 75.688 470.071 74.792 470.071 73.64C470.071 72.664 470.423 71.888 471.127 71.312C471.831 70.72 472.855 70.352 474.199 70.208L480.127 69.56C479.935 68.376 478.863 67.784 476.911 67.784C475.887 67.784 475.087 67.928 474.511 68.216C473.951 68.488 473.671 68.872 473.671 69.368V69.44H470.167V69.368C470.167 68.424 470.439 67.6 470.983 66.896C471.543 66.192 472.335 65.648 473.359 65.264C474.383 64.88 475.575 64.688 476.935 64.688C479.047 64.688 480.687 65.16 481.855 66.104C483.039 67.048 483.631 68.352 483.631 70.016V72.992C483.631 73.632 483.999 73.952 484.735 73.952H485.791ZM475.687 74.504C476.711 74.504 477.615 74.352 478.399 74.048C479.199 73.728 479.783 73.304 480.151 72.776V71.96L475.111 72.536C474.583 72.6 474.191 72.712 473.935 72.872C473.679 73.032 473.551 73.256 473.551 73.544C473.551 74.184 474.263 74.504 475.687 74.504ZM492.147 64.976V73.952H497.667V64.976H501.123V73.952H506.619V64.976H510.099V77H488.667V64.976H492.147ZM95.16 92.976V105H91.8V96.504L91.2 97.848L87.504 105H84.408L80.736 97.848L80.112 96.48V97.944L80.136 105H76.752V92.976H81.696L85.968 101.424L90.216 92.976H95.16ZM114.562 101.952V105H112.522C111.786 105 111.146 104.88 110.602 104.64C110.074 104.384 109.674 104.024 109.402 103.56C108.186 104.712 106.458 105.288 104.218 105.288C102.522 105.288 101.202 104.968 100.258 104.328C99.3139 103.688 98.8419 102.792 98.8419 101.64C98.8419 100.664 99.1939 99.888 99.8979 99.312C100.602 98.72 101.626 98.352 102.97 98.208L108.898 97.56C108.706 96.376 107.634 95.784 105.682 95.784C104.658 95.784 103.858 95.928 103.282 96.216C102.722 96.488 102.442 96.872 102.442 97.368V97.44H98.9379V97.368C98.9379 96.424 99.2099 95.6 99.7539 94.896C100.314 94.192 101.106 93.648 102.13 93.264C103.154 92.88 104.346 92.688 105.706 92.688C107.818 92.688 109.458 93.16 110.626 94.104C111.81 95.048 112.402 96.352 112.402 98.016V100.992C112.402 101.632 112.77 101.952 113.506 101.952H114.562ZM104.458 102.504C105.482 102.504 106.386 102.352 107.17 102.048C107.97 101.728 108.554 101.304 108.922 100.776V99.96L103.882 100.536C103.354 100.6 102.962 100.712 102.706 100.872C102.45 101.032 102.322 101.256 102.322 101.544C102.322 102.184 103.034 102.504 104.458 102.504ZM123.846 105.288C122.374 105.288 121.086 105.04 119.982 104.544C118.894 104.048 118.054 103.344 117.462 102.432C116.886 101.52 116.598 100.44 116.598 99.192V98.88C116.598 97.616 116.886 96.52 117.462 95.592C118.054 94.664 118.894 93.952 119.982 93.456C121.086 92.944 122.374 92.688 123.846 92.688C125.206 92.688 126.422 92.92 127.494 93.384C128.582 93.832 129.422 94.464 130.014 95.28C130.622 96.08 130.926 97 130.926 98.04V98.136H127.35V98.04C127.35 97.4 127.022 96.88 126.366 96.48C125.726 96.064 124.886 95.856 123.846 95.856C122.662 95.856 121.758 96.12 121.134 96.648C120.51 97.16 120.198 97.912 120.198 98.904V99.168C120.198 100.128 120.51 100.864 121.134 101.376C121.758 101.872 122.662 102.12 123.846 102.12C124.902 102.12 125.75 101.928 126.39 101.544C127.03 101.144 127.35 100.616 127.35 99.96V99.864H130.926V99.96C130.926 101.016 130.63 101.952 130.038 102.768C129.462 103.568 128.638 104.192 127.566 104.64C126.51 105.072 125.27 105.288 123.846 105.288ZM148.756 104.496V105H144.868L140.74 100.44H137.956V105H134.476V92.976H137.956V97.44H140.596L144.532 92.976H148.492V93.48L143.74 98.856L148.756 104.496ZM157.479 105.288C155.975 105.288 154.671 105.048 153.567 104.568C152.463 104.072 151.615 103.368 151.023 102.456C150.431 101.528 150.135 100.44 150.135 99.192V98.88C150.135 97.6 150.423 96.496 150.999 95.568C151.591 94.64 152.439 93.928 153.543 93.432C154.647 92.936 155.959 92.688 157.479 92.688C158.983 92.688 160.279 92.936 161.367 93.432C162.455 93.928 163.287 94.64 163.863 95.568C164.455 96.496 164.751 97.6 164.751 98.88V99.192C164.751 100.44 164.455 101.528 163.863 102.456C163.287 103.368 162.455 104.072 161.367 104.568C160.279 105.048 158.983 105.288 157.479 105.288ZM157.455 102.12C158.623 102.12 159.527 101.864 160.167 101.352C160.823 100.84 161.151 100.112 161.151 99.168V98.904C161.151 97.928 160.831 97.176 160.191 96.648C159.551 96.12 158.639 95.856 157.455 95.856C156.255 95.856 155.335 96.12 154.695 96.648C154.055 97.16 153.735 97.912 153.735 98.904V99.168C153.735 100.112 154.055 100.84 154.695 101.352C155.351 101.864 156.271 102.12 157.455 102.12ZM166.503 96.096V92.976H180.375V96.096H175.215V105H171.711V96.096H166.503ZM190.387 96.792V99.888H182.179V96.792H190.387ZM200.716 105.288C199.244 105.288 197.956 105.04 196.852 104.544C195.764 104.048 194.924 103.344 194.332 102.432C193.756 101.52 193.468 100.44 193.468 99.192V98.88C193.468 97.616 193.756 96.52 194.332 95.592C194.924 94.664 195.764 93.952 196.852 93.456C197.956 92.944 199.244 92.688 200.716 92.688C202.076 92.688 203.292 92.92 204.364 93.384C205.452 93.832 206.292 94.464 206.884 95.28C207.492 96.08 207.796 97 207.796 98.04V98.136H204.22V98.04C204.22 97.4 203.892 96.88 203.236 96.48C202.596 96.064 201.756 95.856 200.716 95.856C199.532 95.856 198.628 96.12 198.004 96.648C197.38 97.16 197.068 97.912 197.068 98.904V99.168C197.068 100.128 197.38 100.864 198.004 101.376C198.628 101.872 199.532 102.12 200.716 102.12C201.772 102.12 202.62 101.928 203.26 101.544C203.9 101.144 204.22 100.616 204.22 99.96V99.864H207.796V99.96C207.796 101.016 207.5 101.952 206.908 102.768C206.332 103.568 205.508 104.192 204.436 104.64C203.38 105.072 202.14 105.288 200.716 105.288ZM217.85 105.288C216.346 105.288 215.042 105.048 213.938 104.568C212.834 104.072 211.986 103.368 211.394 102.456C210.802 101.528 210.506 100.44 210.506 99.192V98.88C210.506 97.6 210.794 96.496 211.37 95.568C211.962 94.64 212.81 93.928 213.914 93.432C215.018 92.936 216.33 92.688 217.85 92.688C219.354 92.688 220.65 92.936 221.738 93.432C222.826 93.928 223.658 94.64 224.234 95.568C224.826 96.496 225.122 97.6 225.122 98.88V99.192C225.122 100.44 224.826 101.528 224.234 102.456C223.658 103.368 222.826 104.072 221.738 104.568C220.65 105.048 219.354 105.288 217.85 105.288ZM217.826 102.12C218.994 102.12 219.898 101.864 220.538 101.352C221.194 100.84 221.522 100.112 221.522 99.168V98.904C221.522 97.928 221.202 97.176 220.562 96.648C219.922 96.12 219.01 95.856 217.826 95.856C216.626 95.856 215.706 96.12 215.066 96.648C214.426 97.16 214.106 97.912 214.106 98.904V99.168C214.106 100.112 214.426 100.84 215.066 101.352C215.722 101.864 216.642 102.12 217.826 102.12ZM242.109 105H238.629V96.048H232.989L232.893 99.192C232.765 103.064 231.253 105 228.357 105H226.941V101.904H227.541C228.245 101.904 228.757 101.68 229.077 101.232C229.413 100.768 229.589 100.016 229.605 98.976L229.773 92.976H242.109V105ZM250.051 92.976V97.44H256.819V92.976H260.299V105H256.819V100.488H250.051V105H246.571V92.976H250.051ZM273.061 95.976C274.677 95.976 275.941 96.376 276.853 97.176C277.781 97.96 278.245 99.032 278.245 100.392V100.656C278.245 101.984 277.781 103.04 276.853 103.824C275.941 104.608 274.677 105 273.061 105H264.709V92.976H268.165V95.976H273.061ZM282.949 92.976V105H279.493V92.976H282.949ZM274.669 100.368C274.669 99.904 274.509 99.544 274.189 99.288C273.885 99.032 273.429 98.904 272.821 98.904H268.165V102.072H272.821C273.429 102.072 273.885 101.952 274.189 101.712C274.509 101.456 274.669 101.104 274.669 100.656V100.368ZM290.854 92.976V101.952H296.374V92.976H299.83V101.952H305.326V92.976H308.806V105H287.374V92.976H290.854ZM327.551 104.496V105H323.663L319.535 100.44H316.751V105H313.271V92.976H316.751V97.44H319.391L323.327 92.976H327.287V93.48L322.535 98.856L327.551 104.496ZM336.274 105.288C334.77 105.288 333.466 105.048 332.362 104.568C331.258 104.072 330.41 103.368 329.818 102.456C329.226 101.528 328.93 100.44 328.93 99.192V98.88C328.93 97.6 329.218 96.496 329.794 95.568C330.386 94.64 331.234 93.928 332.338 93.432C333.442 92.936 334.754 92.688 336.274 92.688C337.778 92.688 339.074 92.936 340.162 93.432C341.25 93.928 342.082 94.64 342.658 95.568C343.25 96.496 343.546 97.6 343.546 98.88V99.192C343.546 100.44 343.25 101.528 342.658 102.456C342.082 103.368 341.25 104.072 340.162 104.568C339.074 105.048 337.778 105.288 336.274 105.288ZM336.25 102.12C337.418 102.12 338.322 101.864 338.962 101.352C339.618 100.84 339.946 100.112 339.946 99.168V98.904C339.946 97.928 339.626 97.176 338.986 96.648C338.346 96.12 337.434 95.856 336.25 95.856C335.05 95.856 334.13 96.12 333.49 96.648C332.85 97.16 332.53 97.912 332.53 98.904V99.168C332.53 100.112 332.85 100.84 333.49 101.352C334.146 101.864 335.066 102.12 336.25 102.12ZM351.329 101.448V101.952L348.977 108.432H345.761L347.465 101.448H351.329ZM372.506 105.288C371.002 105.288 369.698 105.048 368.594 104.568C367.49 104.072 366.642 103.368 366.05 102.456C365.458 101.528 365.162 100.44 365.162 99.192V98.88C365.162 97.6 365.45 96.496 366.026 95.568C366.618 94.64 367.466 93.928 368.57 93.432C369.674 92.936 370.986 92.688 372.506 92.688C374.01 92.688 375.306 92.936 376.394 93.432C377.482 93.928 378.314 94.64 378.89 95.568C379.482 96.496 379.778 97.6 379.778 98.88V99.192C379.778 100.44 379.482 101.528 378.89 102.456C378.314 103.368 377.482 104.072 376.394 104.568C375.306 105.048 374.01 105.288 372.506 105.288ZM372.482 102.12C373.65 102.12 374.554 101.864 375.194 101.352C375.85 100.84 376.178 100.112 376.178 99.168V98.904C376.178 97.928 375.858 97.176 375.218 96.648C374.578 96.12 373.666 95.856 372.482 95.856C371.282 95.856 370.362 96.12 369.722 96.648C369.082 97.16 368.762 97.912 368.762 98.904V99.168C368.762 100.112 369.082 100.84 369.722 101.352C370.378 101.864 371.298 102.12 372.482 102.12ZM386.871 92.976V97.44H393.639V92.976H397.119V105H393.639V100.488H386.871V105H383.391V92.976H386.871ZM408.082 105.288C406.578 105.288 405.274 105.048 404.17 104.568C403.066 104.072 402.218 103.368 401.626 102.456C401.034 101.528 400.738 100.44 400.738 99.192V98.88C400.738 97.6 401.026 96.496 401.602 95.568C402.194 94.64 403.042 93.928 404.146 93.432C405.25 92.936 406.562 92.688 408.082 92.688C409.586 92.688 410.882 92.936 411.97 93.432C413.058 93.928 413.89 94.64 414.466 95.568C415.058 96.496 415.354 97.6 415.354 98.88V99.192C415.354 100.44 415.058 101.528 414.466 102.456C413.89 103.368 413.058 104.072 411.97 104.568C410.882 105.048 409.586 105.288 408.082 105.288ZM408.058 102.12C409.226 102.12 410.13 101.864 410.77 101.352C411.426 100.84 411.754 100.112 411.754 99.168V98.904C411.754 97.928 411.434 97.176 410.794 96.648C410.154 96.12 409.242 95.856 408.058 95.856C406.858 95.856 405.938 96.12 405.298 96.648C404.658 97.16 404.338 97.912 404.338 98.904V99.168C404.338 100.112 404.658 100.84 405.298 101.352C405.954 101.864 406.874 102.12 408.058 102.12ZM443.025 92.976V105H439.545V96.048H433.017V105H429.537V92.976H443.025ZM454.881 92.688C456.289 92.688 457.521 92.944 458.577 93.456C459.633 93.952 460.441 94.672 461.001 95.616C461.577 96.544 461.865 97.624 461.865 98.856V99.096C461.865 100.328 461.577 101.416 461.001 102.36C460.425 103.288 459.609 104.008 458.553 104.52C457.513 105.032 456.289 105.288 454.881 105.288C453.345 105.288 452.041 104.896 450.969 104.112V109.08H447.489V92.976H450.729L450.825 94.008C451.961 93.128 453.313 92.688 454.881 92.688ZM458.265 98.856C458.265 97.912 457.937 97.176 457.281 96.648C456.625 96.12 455.713 95.856 454.545 95.856C453.777 95.856 453.073 95.976 452.433 96.216C451.809 96.44 451.321 96.76 450.969 97.176V100.776C451.337 101.192 451.833 101.52 452.457 101.76C453.097 102 453.793 102.12 454.545 102.12C455.713 102.12 456.625 101.856 457.281 101.328C457.937 100.8 458.265 100.056 458.265 99.096V98.856ZM468.824 92.976V100.776L475.952 92.976H479.096V105H475.76V97.2L468.632 105H465.488V92.976H468.824ZM487.038 92.976V97.44H493.806V92.976H497.286V105H493.806V100.488H487.038V105H483.558V92.976H487.038ZM508.248 105.288C506.744 105.288 505.44 105.048 504.336 104.568C503.232 104.072 502.384 103.368 501.792 102.456C501.2 101.528 500.904 100.44 500.904 99.192V98.88C500.904 97.6 501.192 96.496 501.768 95.568C502.36 94.64 503.208 93.928 504.312 93.432C505.416 92.936 506.728 92.688 508.248 92.688C509.752 92.688 511.048 92.936 512.136 93.432C513.224 93.928 514.056 94.64 514.632 95.568C515.224 96.496 515.52 97.6 515.52 98.88V99.192C515.52 100.44 515.224 101.528 514.632 102.456C514.056 103.368 513.224 104.072 512.136 104.568C511.048 105.048 509.752 105.288 508.248 105.288ZM508.224 102.12C509.392 102.12 510.296 101.864 510.936 101.352C511.592 100.84 511.92 100.112 511.92 99.168V98.904C511.92 97.928 511.6 97.176 510.96 96.648C510.32 96.12 509.408 95.856 508.224 95.856C507.024 95.856 506.104 96.12 505.464 96.648C504.824 97.16 504.504 97.912 504.504 98.904V99.168C504.504 100.112 504.824 100.84 505.464 101.352C506.12 101.864 507.04 102.12 508.224 102.12ZM525.542 105.288C524.07 105.288 522.782 105.04 521.678 104.544C520.59 104.048 519.75 103.344 519.158 102.432C518.582 101.52 518.294 100.44 518.294 99.192V98.88C518.294 97.616 518.582 96.52 519.158 95.592C519.75 94.664 520.59 93.952 521.678 93.456C522.782 92.944 524.07 92.688 525.542 92.688C526.902 92.688 528.118 92.92 529.19 93.384C530.278 93.832 531.118 94.464 531.71 95.28C532.318 96.08 532.622 97 532.622 98.04V98.136H529.046V98.04C529.046 97.4 528.718 96.88 528.062 96.48C527.422 96.064 526.582 95.856 525.542 95.856C524.358 95.856 523.454 96.12 522.83 96.648C522.206 97.16 521.894 97.912 521.894 98.904V99.168C521.894 100.128 522.206 100.864 522.83 101.376C523.454 101.872 524.358 102.12 525.542 102.12C526.598 102.12 527.446 101.928 528.086 101.544C528.726 101.144 529.046 100.616 529.046 99.96V99.864H532.622V99.96C532.622 101.016 532.326 101.952 531.734 102.768C531.158 103.568 530.334 104.192 529.262 104.64C528.206 105.072 526.966 105.288 525.542 105.288ZM539.508 92.976V100.776L546.636 92.976H549.78V105H546.444V97.2L539.316 105H536.172V92.976H539.508ZM552.122 96.096V92.976H565.994V96.096H560.834V105H557.33V96.096H552.122ZM91.272 120.976V121.48L84.912 134.2C84.4 135.208 83.768 135.936 83.016 136.384C82.264 136.848 81.256 137.08 79.992 137.08H76.848V134.032H79.824C80.256 134.032 80.592 133.976 80.832 133.864C81.088 133.768 81.304 133.576 81.48 133.288L75.456 121.48V120.976H79.152L83.4 129.64L87.576 120.976H91.272ZM109.007 129.952V136.072H105.527V133H94.7994V136.072H91.3194V129.952H93.1914C93.5434 129.392 93.8074 128.784 93.9834 128.128C94.1594 127.472 94.2554 126.704 94.2714 125.824L94.3674 120.976H106.727V129.952H109.007ZM103.247 129.952V124.048H97.5354L97.4874 125.848C97.4554 126.776 97.3674 127.56 97.2234 128.2C97.0794 128.84 96.8554 129.424 96.5514 129.952H103.247ZM127.241 129.952V133H125.201C124.465 133 123.825 132.88 123.281 132.64C122.753 132.384 122.353 132.024 122.081 131.56C120.865 132.712 119.137 133.288 116.897 133.288C115.201 133.288 113.881 132.968 112.937 132.328C111.993 131.688 111.521 130.792 111.521 129.64C111.521 128.664 111.873 127.888 112.577 127.312C113.281 126.72 114.305 126.352 115.649 126.208L121.577 125.56C121.385 124.376 120.313 123.784 118.361 123.784C117.337 123.784 116.537 123.928 115.961 124.216C115.401 124.488 115.121 124.872 115.121 125.368V125.44H111.617V125.368C111.617 124.424 111.889 123.6 112.433 122.896C112.993 122.192 113.785 121.648 114.809 121.264C115.833 120.88 117.025 120.688 118.385 120.688C120.497 120.688 122.137 121.16 123.305 122.104C124.489 123.048 125.081 124.352 125.081 126.016V128.992C125.081 129.632 125.449 129.952 126.185 129.952H127.241ZM117.137 130.504C118.161 130.504 119.065 130.352 119.849 130.048C120.649 129.728 121.233 129.304 121.601 128.776V127.96L116.561 128.536C116.033 128.6 115.641 128.712 115.385 128.872C115.129 129.032 115.001 129.256 115.001 129.544C115.001 130.184 115.713 130.504 117.137 130.504ZM141.923 120.976V133H138.443V129.232C137.051 129.424 135.699 129.52 134.387 129.52C130.419 129.52 128.435 127.848 128.435 124.504V120.976H131.915V124.264C131.915 125 132.155 125.544 132.635 125.896C133.115 126.248 133.859 126.424 134.867 126.424C135.923 126.424 137.115 126.352 138.443 126.208V120.976H141.923ZM160.901 120.976V121.48L154.541 134.2C154.029 135.208 153.397 135.936 152.645 136.384C151.893 136.848 150.885 137.08 149.621 137.08H146.477V134.032H149.453C149.885 134.032 150.221 133.976 150.461 133.864C150.717 133.768 150.933 133.576 151.109 133.288L145.085 121.48V120.976H148.781L153.029 129.64L157.205 120.976H160.901ZM168.371 117.256L168.179 127.912H164.939L164.723 117.256H168.371ZM166.547 133.288C165.939 133.288 165.435 133.104 165.035 132.736C164.651 132.352 164.459 131.864 164.459 131.272C164.459 130.68 164.651 130.2 165.035 129.832C165.435 129.448 165.939 129.256 166.547 129.256C167.155 129.256 167.651 129.448 168.035 129.832C168.435 130.2 168.635 130.68 168.635 131.272C168.635 131.864 168.435 132.352 168.035 132.736C167.651 133.104 167.155 133.288 166.547 133.288Z" fill="black" fill-opacity="0.8"/>
</svg>
